<svg xmlns="http://www.w3.org/2000/svg" width="255.148" height="260.07" viewBox="0 0 255.148 260.07">
  <g id="projetos_icones_pjmt_v2_final-01_" transform="translate(5.223 11.77)">
    <g id="Grupo_7" data-name="Grupo 7">
      <g id="Grupo_6" data-name="Grupo 6">
        <g id="Grupo_5" data-name="Grupo 5">
          <g id="Grupo_4" data-name="Grupo 4">
            <g id="Grupo_3" data-name="Grupo 3">
              <g id="Grupo_2" data-name="Grupo 2">
                <g id="Grupo_1" data-name="Grupo 1">
                  <path id="Caminho_1" data-name="Caminho 1" d="M223.1,208.8a10.94,10.94,0,0,0,7.3,1.4,9.585,9.585,0,0,0,5.6-3,7.746,7.746,0,0,0,2.1-5.3,7.591,7.591,0,0,0-1.7-5.2,28.08,28.08,0,0,0-2.5-2.6c-.9-1-1.9-2-2.8-3-1.8-2-3.6-4-5.3-6.2a98.785,98.785,0,0,1-9.6-13.4,92.912,92.912,0,0,1,13.4,9.6c2.1,1.7,4.1,3.5,6.2,5.3,1,.9,2,1.9,3,2.8a32.207,32.207,0,0,1,3.1,3.2,14.436,14.436,0,0,1,2.4,4.8,13.478,13.478,0,0,1,.4,5.3,12.721,12.721,0,0,1-5.1,8.8,11.765,11.765,0,0,1-9.3,2.3A10.057,10.057,0,0,1,223.1,208.8Z" fill="#b3b3b3"/>
                </g>
              </g>
            </g>
          </g>
        </g>
      </g>
    </g>
    <g id="Grupo_11" data-name="Grupo 11">
      <g id="Grupo_10" data-name="Grupo 10">
        <g id="Grupo_9" data-name="Grupo 9">
          <g id="Grupo_8" data-name="Grupo 8">
            <path id="Caminho_2" data-name="Caminho 2" d="M69.7,5.7C86.6,3.8,103.6,2.8,120.5,2l12.7-.5,6.4-.2,3.2-.1h1.6a13.4,13.4,0,0,1,2,.1,23.6,23.6,0,0,1,21.5,19.9,13.551,13.551,0,0,1,.2,2V47.4l.1,25.4v50.8l-.1,50.8-.1,25.4V224a13.554,13.554,0,0,1-.2,2,23.6,23.6,0,0,1-21.5,19.9,13.4,13.4,0,0,1-2,.1h-1.6l-3.2-.1-6.4-.2-12.7-.5c-16.9-.8-33.9-1.8-50.8-3.7,16.9-1.9,33.9-2.9,50.8-3.7l12.7-.5,12.3-.4A14.534,14.534,0,0,0,154,233a14.256,14.256,0,0,0,4.3-8.3c0-.4.1-.8.1-1.2V199.9l-.1-25.4-.1-50.8V72.9l.1-25.4V23.9c0-.4-.1-.8-.1-1.2a13.71,13.71,0,0,0-4.3-8.3,14.534,14.534,0,0,0-8.6-3.9c-.4,0-.8-.1-1.2-.1h-1.6l-3.2-.1-6.4-.2-12.7-.5C103.6,8.7,86.6,7.7,69.7,5.7Z" fill="#b3b3b3"/>
          </g>
        </g>
      </g>
    </g>
    <g id="Grupo_24" data-name="Grupo 24">
      <g id="Grupo_23" data-name="Grupo 23">
        <g id="Grupo_22" data-name="Grupo 22">
          <g id="Grupo_21" data-name="Grupo 21">
            <g id="Grupo_20" data-name="Grupo 20">
              <g id="Grupo_15" data-name="Grupo 15">
                <g id="Grupo_14" data-name="Grupo 14">
                  <g id="Grupo_13" data-name="Grupo 13">
                    <g id="Grupo_12" data-name="Grupo 12">
                      <path id="Caminho_3" data-name="Caminho 3" d="M32.2,52.2a3.6,3.6,0,1,1,0-7.2h93.9a3.6,3.6,0,1,1,0,7.2Z" fill="#eec73a" fill-rule="evenodd"/>
                    </g>
                  </g>
                </g>
              </g>
              <g id="Grupo_19" data-name="Grupo 19">
                <g id="Grupo_18" data-name="Grupo 18">
                  <g id="Grupo_17" data-name="Grupo 17">
                    <g id="Grupo_16" data-name="Grupo 16">
                      <path id="Caminho_4" data-name="Caminho 4" d="M126.1,45.5a3.1,3.1,0,0,1,0,6.2H32.2a3.1,3.1,0,1,1,0-6.2h93.9m0-1H32.2a4.1,4.1,0,1,0,0,8.2h93.9a4.1,4.1,0,1,0,0-8.2Z" fill="#eec73a"/>
                    </g>
                  </g>
                </g>
              </g>
            </g>
          </g>
        </g>
      </g>
    </g>
    <g id="Grupo_36" data-name="Grupo 36">
      <g id="Grupo_35" data-name="Grupo 35">
        <g id="Grupo_34" data-name="Grupo 34">
          <g id="Grupo_33" data-name="Grupo 33">
            <g id="Grupo_28" data-name="Grupo 28">
              <g id="Grupo_27" data-name="Grupo 27">
                <g id="Grupo_26" data-name="Grupo 26">
                  <g id="Grupo_25" data-name="Grupo 25">
                    <path id="Caminho_5" data-name="Caminho 5" d="M103.4,225.4a3.6,3.6,0,0,1,0-7.2h32.9a3.6,3.6,0,1,1,0,7.2Z" fill="#eec73a" fill-rule="evenodd"/>
                  </g>
                </g>
              </g>
            </g>
            <g id="Grupo_32" data-name="Grupo 32">
              <g id="Grupo_31" data-name="Grupo 31">
                <g id="Grupo_30" data-name="Grupo 30">
                  <g id="Grupo_29" data-name="Grupo 29">
                    <path id="Caminho_6" data-name="Caminho 6" d="M136.2,218.7a3.1,3.1,0,0,1,0,6.2H103.3a3.1,3.1,0,0,1,0-6.2h32.9m0-1H103.3a4.1,4.1,0,0,0,0,8.2h32.9a4.1,4.1,0,1,0,0-8.2Z" fill="#eec73a"/>
                  </g>
                </g>
              </g>
            </g>
          </g>
        </g>
      </g>
    </g>
    <g id="Grupo_48" data-name="Grupo 48">
      <g id="Grupo_47" data-name="Grupo 47">
        <g id="Grupo_46" data-name="Grupo 46">
          <g id="Grupo_45" data-name="Grupo 45">
            <g id="Grupo_40" data-name="Grupo 40">
              <g id="Grupo_39" data-name="Grupo 39">
                <g id="Grupo_38" data-name="Grupo 38">
                  <g id="Grupo_37" data-name="Grupo 37">
                    <path id="Caminho_7" data-name="Caminho 7" d="M32.2,225.4a3.6,3.6,0,0,1,0-7.2H65.1a3.6,3.6,0,0,1,0,7.2Z" fill="#eec73a" fill-rule="evenodd"/>
                  </g>
                </g>
              </g>
            </g>
            <g id="Grupo_44" data-name="Grupo 44">
              <g id="Grupo_43" data-name="Grupo 43">
                <g id="Grupo_42" data-name="Grupo 42">
                  <g id="Grupo_41" data-name="Grupo 41">
                    <path id="Caminho_8" data-name="Caminho 8" d="M65.1,218.7a3.1,3.1,0,0,1,0,6.2H32.2a3.1,3.1,0,0,1,0-6.2H65.1m0-1H32.2a4.1,4.1,0,0,0,0,8.2H65.1a4.055,4.055,0,0,0,4.1-4.1,4.118,4.118,0,0,0-4.1-4.1Z" fill="#eec73a"/>
                  </g>
                </g>
              </g>
            </g>
          </g>
        </g>
      </g>
    </g>
    <g id="Grupo_60" data-name="Grupo 60">
      <g id="Grupo_59" data-name="Grupo 59">
        <g id="Grupo_58" data-name="Grupo 58">
          <g id="Grupo_57" data-name="Grupo 57">
            <g id="Grupo_52" data-name="Grupo 52">
              <g id="Grupo_51" data-name="Grupo 51">
                <g id="Grupo_50" data-name="Grupo 50">
                  <g id="Grupo_49" data-name="Grupo 49">
                    <path id="Caminho_9" data-name="Caminho 9" d="M32.2,197.2a3.6,3.6,0,0,1,0-7.2h67.9a3.6,3.6,0,0,1,0,7.2Z" fill="#eec73a" fill-rule="evenodd"/>
                  </g>
                </g>
              </g>
            </g>
            <g id="Grupo_56" data-name="Grupo 56">
              <g id="Grupo_55" data-name="Grupo 55">
                <g id="Grupo_54" data-name="Grupo 54">
                  <g id="Grupo_53" data-name="Grupo 53">
                    <path id="Caminho_10" data-name="Caminho 10" d="M100.1,190.5a3.1,3.1,0,0,1,0,6.2H32.2a3.1,3.1,0,0,1,0-6.2h67.9m0-1H32.2a4.1,4.1,0,0,0,0,8.2h67.9a4.1,4.1,0,0,0,0-8.2Z" fill="#eec73a"/>
                  </g>
                </g>
              </g>
            </g>
          </g>
        </g>
      </g>
    </g>
    <g id="Grupo_72" data-name="Grupo 72">
      <g id="Grupo_71" data-name="Grupo 71">
        <g id="Grupo_70" data-name="Grupo 70">
          <g id="Grupo_69" data-name="Grupo 69">
            <g id="Grupo_64" data-name="Grupo 64">
              <g id="Grupo_63" data-name="Grupo 63">
                <g id="Grupo_62" data-name="Grupo 62">
                  <g id="Grupo_61" data-name="Grupo 61">
                    <path id="Caminho_11" data-name="Caminho 11" d="M32.2,81.2a3.6,3.6,0,1,1,0-7.2H91.1a3.6,3.6,0,0,1,0,7.2Z" fill="#eec73a" fill-rule="evenodd"/>
                  </g>
                </g>
              </g>
            </g>
            <g id="Grupo_68" data-name="Grupo 68">
              <g id="Grupo_67" data-name="Grupo 67">
                <g id="Grupo_66" data-name="Grupo 66">
                  <g id="Grupo_65" data-name="Grupo 65">
                    <path id="Caminho_12" data-name="Caminho 12" d="M91.1,74.5a3.1,3.1,0,0,1,0,6.2H32.2a3.1,3.1,0,1,1,0-6.2H91.1m0-1H32.2a4.1,4.1,0,1,0,0,8.2H91.1a4.1,4.1,0,1,0,0-8.2Z" fill="#eec73a"/>
                  </g>
                </g>
              </g>
            </g>
          </g>
        </g>
      </g>
    </g>
    <g id="Grupo_84" data-name="Grupo 84">
      <g id="Grupo_83" data-name="Grupo 83">
        <g id="Grupo_82" data-name="Grupo 82">
          <g id="Grupo_81" data-name="Grupo 81">
            <g id="Grupo_76" data-name="Grupo 76">
              <g id="Grupo_75" data-name="Grupo 75">
                <g id="Grupo_74" data-name="Grupo 74">
                  <g id="Grupo_73" data-name="Grupo 73">
                    <path id="Caminho_13" data-name="Caminho 13" d="M32.1,108.7a3.6,3.6,0,1,1,0-7.2H78.2a3.6,3.6,0,0,1,0,7.2Z" fill="#eec73a" fill-rule="evenodd"/>
                  </g>
                </g>
              </g>
            </g>
            <g id="Grupo_80" data-name="Grupo 80">
              <g id="Grupo_79" data-name="Grupo 79">
                <g id="Grupo_78" data-name="Grupo 78">
                  <g id="Grupo_77" data-name="Grupo 77">
                    <path id="Caminho_14" data-name="Caminho 14" d="M78.2,101.9a3.1,3.1,0,0,1,0,6.2H32.1a3.1,3.1,0,1,1,0-6.2H78.2m0-1H32.1a4.1,4.1,0,1,0,0,8.2H78.2a4.1,4.1,0,0,0,0-8.2Z" fill="#eec73a"/>
                  </g>
                </g>
              </g>
            </g>
          </g>
        </g>
      </g>
    </g>
    <g id="Grupo_96" data-name="Grupo 96">
      <g id="Grupo_95" data-name="Grupo 95">
        <g id="Grupo_94" data-name="Grupo 94">
          <g id="Grupo_93" data-name="Grupo 93">
            <g id="Grupo_88" data-name="Grupo 88">
              <g id="Grupo_87" data-name="Grupo 87">
                <g id="Grupo_86" data-name="Grupo 86">
                  <g id="Grupo_85" data-name="Grupo 85">
                    <path id="Caminho_15" data-name="Caminho 15" d="M32.1,139.4a3.6,3.6,0,0,1,0-7.2H70.2a3.6,3.6,0,0,1,0,7.2Z" fill="#eec73a" fill-rule="evenodd"/>
                  </g>
                </g>
              </g>
            </g>
            <g id="Grupo_92" data-name="Grupo 92">
              <g id="Grupo_91" data-name="Grupo 91">
                <g id="Grupo_90" data-name="Grupo 90">
                  <g id="Grupo_89" data-name="Grupo 89">
                    <path id="Caminho_16" data-name="Caminho 16" d="M70.2,132.6a3.1,3.1,0,0,1,0,6.2H32.1a3.1,3.1,0,0,1,0-6.2H70.2m0-1H32.1a4.1,4.1,0,0,0,0,8.2H70.2a4.1,4.1,0,0,0,0-8.2Z" fill="#eec73a"/>
                  </g>
                </g>
              </g>
            </g>
          </g>
        </g>
      </g>
    </g>
    <g id="Grupo_108" data-name="Grupo 108">
      <g id="Grupo_107" data-name="Grupo 107">
        <g id="Grupo_106" data-name="Grupo 106">
          <g id="Grupo_105" data-name="Grupo 105">
            <g id="Grupo_100" data-name="Grupo 100">
              <g id="Grupo_99" data-name="Grupo 99">
                <g id="Grupo_98" data-name="Grupo 98">
                  <g id="Grupo_97" data-name="Grupo 97">
                    <path id="Caminho_17" data-name="Caminho 17" d="M32.1,168.4a3.6,3.6,0,0,1,0-7.2H78.2a3.6,3.6,0,0,1,0,7.2Z" fill="#eec73a" fill-rule="evenodd"/>
                  </g>
                </g>
              </g>
            </g>
            <g id="Grupo_104" data-name="Grupo 104">
              <g id="Grupo_103" data-name="Grupo 103">
                <g id="Grupo_102" data-name="Grupo 102">
                  <g id="Grupo_101" data-name="Grupo 101">
                    <path id="Caminho_18" data-name="Caminho 18" d="M78.2,161.6a3.1,3.1,0,0,1,0,6.2H32.1a3.1,3.1,0,0,1,0-6.2H78.2m0-1H32.1a4.1,4.1,0,0,0,0,8.2H78.2a4.1,4.1,0,0,0,0-8.2Z" fill="#eec73a"/>
                  </g>
                </g>
              </g>
            </g>
          </g>
        </g>
      </g>
    </g>
    <g id="Grupo_114" data-name="Grupo 114">
      <g id="Grupo_113" data-name="Grupo 113">
        <g id="Grupo_112" data-name="Grupo 112">
          <g id="Grupo_111" data-name="Grupo 111">
            <g id="Grupo_110" data-name="Grupo 110">
              <g id="Grupo_109" data-name="Grupo 109">
                <path id="Caminho_19" data-name="Caminho 19" d="M148.6,248.3H25.8A21.638,21.638,0,0,1,4.2,226.7V22.4A21.638,21.638,0,0,1,25.8.8H148.6a21.638,21.638,0,0,1,21.6,21.6V226.7A21.638,21.638,0,0,1,148.6,248.3ZM25.8,7.2A15.108,15.108,0,0,0,10.7,22.4V226.7a15.087,15.087,0,0,0,15.1,15.1H148.6a15.087,15.087,0,0,0,15.1-15.1V22.4A15.172,15.172,0,0,0,148.6,7.2Z" fill="#00417a"/>
              </g>
            </g>
          </g>
        </g>
      </g>
    </g>
    <g id="Grupo_162" data-name="Grupo 162">
      <g id="Grupo_118" data-name="Grupo 118">
        <g id="Grupo_117" data-name="Grupo 117">
          <g id="Grupo_116" data-name="Grupo 116">
            <g id="Grupo_115" data-name="Grupo 115">
              <circle id="Elipse_1" data-name="Elipse 1" cx="72" cy="72" r="72" transform="translate(88 58)" fill="#fff"/>
            </g>
          </g>
        </g>
      </g>
      <g id="Grupo_125" data-name="Grupo 125">
        <g id="Grupo_124" data-name="Grupo 124">
          <g id="Grupo_123" data-name="Grupo 123">
            <g id="Grupo_122" data-name="Grupo 122">
              <g id="Grupo_121" data-name="Grupo 121">
                <g id="Grupo_120" data-name="Grupo 120">
                  <g id="Grupo_119" data-name="Grupo 119">
                    <path id="Caminho_20" data-name="Caminho 20" d="M159.6,188.4a57.6,57.6,0,1,1,57.6-57.6A57.679,57.679,0,0,1,159.6,188.4Zm0-108.9a51.2,51.2,0,1,0,51.2,51.2A51.3,51.3,0,0,0,159.6,79.5Z" fill="#1d3567"/>
                  </g>
                </g>
              </g>
            </g>
          </g>
        </g>
      </g>
      <g id="Grupo_132" data-name="Grupo 132">
        <g id="Grupo_131" data-name="Grupo 131">
          <g id="Grupo_130" data-name="Grupo 130">
            <g id="Grupo_129" data-name="Grupo 129">
              <g id="Grupo_128" data-name="Grupo 128">
                <g id="Grupo_127" data-name="Grupo 127">
                  <g id="Grupo_126" data-name="Grupo 126">
                    <path id="Caminho_21" data-name="Caminho 21" d="M159.6,188.4a57.6,57.6,0,1,1,57.6-57.6A57.679,57.679,0,0,1,159.6,188.4Zm0-108.9a51.2,51.2,0,1,0,51.2,51.2A51.3,51.3,0,0,0,159.6,79.5Z" fill="#00417a"/>
                  </g>
                </g>
              </g>
            </g>
          </g>
        </g>
      </g>
      <g id="Grupo_139" data-name="Grupo 139">
        <g id="Grupo_138" data-name="Grupo 138">
          <g id="Grupo_137" data-name="Grupo 137">
            <g id="Grupo_136" data-name="Grupo 136">
              <g id="Grupo_135" data-name="Grupo 135">
                <g id="Grupo_134" data-name="Grupo 134">
                  <g id="Grupo_133" data-name="Grupo 133">
                    <path id="Caminho_22" data-name="Caminho 22" d="M159.6,171.5a40.843,40.843,0,0,1-40.8-40.8,3.2,3.2,0,0,1,6.4,0,34.4,34.4,0,0,0,34.4,34.4,3.159,3.159,0,0,1,3.2,3.2A3.222,3.222,0,0,1,159.6,171.5Z" fill="#eec73a"/>
                  </g>
                </g>
              </g>
            </g>
          </g>
        </g>
      </g>
      <g id="Grupo_147" data-name="Grupo 147">
        <g id="Grupo_146" data-name="Grupo 146">
          <g id="Grupo_145" data-name="Grupo 145">
            <g id="Grupo_144" data-name="Grupo 144">
              <g id="Grupo_143" data-name="Grupo 143">
                <g id="Grupo_142" data-name="Grupo 142">
                  <g id="Grupo_141" data-name="Grupo 141">
                    <g id="Grupo_140" data-name="Grupo 140">
                      <path id="Caminho_23" data-name="Caminho 23" d="M220.2,180.6m-3-3.1" fill="#ccc"/>
                    </g>
                  </g>
                </g>
              </g>
            </g>
          </g>
        </g>
      </g>
      <g id="Grupo_154" data-name="Grupo 154">
        <g id="Grupo_153" data-name="Grupo 153">
          <g id="Grupo_152" data-name="Grupo 152">
            <g id="Grupo_151" data-name="Grupo 151">
              <g id="Grupo_150" data-name="Grupo 150">
                <g id="Grupo_149" data-name="Grupo 149">
                  <g id="Grupo_148" data-name="Grupo 148">
                    <path id="Caminho_24" data-name="Caminho 24" d="M160.3,206.1a75.9,75.9,0,1,1,75.9-75.9A75.988,75.988,0,0,1,160.3,206.1Zm0-145.3a69.5,69.5,0,1,0,69.5,69.5A69.608,69.608,0,0,0,160.3,60.8Z" fill="#00417a"/>
                  </g>
                </g>
              </g>
            </g>
          </g>
        </g>
      </g>
      <g id="Grupo_161" data-name="Grupo 161">
        <g id="Grupo_160" data-name="Grupo 160">
          <g id="Grupo_159" data-name="Grupo 159">
            <g id="Grupo_158" data-name="Grupo 158">
              <g id="Grupo_157" data-name="Grupo 157">
                <g id="Grupo_156" data-name="Grupo 156">
                  <g id="Grupo_155" data-name="Grupo 155">
                    <path id="Caminho_25" data-name="Caminho 25" d="M232.8,220a17.519,17.519,0,0,1-12.2-5l-22.1-22.1,4.5-4.5,22.1,22.1a10.819,10.819,0,0,0,15.3-15.3l-22.1-22.1,4.5-4.5,22.1,22.1A17.15,17.15,0,0,1,232.8,220Z" fill="#00417a"/>
                  </g>
                </g>
              </g>
            </g>
          </g>
        </g>
      </g>
    </g>
    <g id="Grupo_166" data-name="Grupo 166">
      <g id="Grupo_165" data-name="Grupo 165">
        <g id="Grupo_164" data-name="Grupo 164">
          <g id="Grupo_163" data-name="Grupo 163">
            <path id="Caminho_26" data-name="Caminho 26" d="M143.7,63.5a65.46,65.46,0,0,1,27.2-1.7,67.42,67.42,0,0,1,25.9,9.4,70.634,70.634,0,0,1,20.3,19,69.729,69.729,0,0,1,11.7,53.4,68.374,68.374,0,0,1-10.6,25.7,70.966,70.966,0,0,1-19.6,19.4,63.591,63.591,0,0,1-25.4,9.7A71.857,71.857,0,0,0,215,167.2a68.373,68.373,0,0,0-20.2-92.7,70.309,70.309,0,0,0-24.2-10.3A71.544,71.544,0,0,0,143.7,63.5Z" fill="#b3b3b3"/>
          </g>
        </g>
      </g>
    </g>
    <g id="Grupo_168" data-name="Grupo 168" transform="matrix(0.966, -0.259, 0.259, 0.966, -754.218, -56.193)">
      <rect id="Retângulo_1" data-name="Retângulo 1" width="163.841" height="60.82" transform="translate(701 277.724)" fill="#189e2a"/>
      <text id="NOVO" transform="translate(710.93 323)" fill="#fff" font-size="45" font-family="SegoeUI-Bold, Segoe UI" font-weight="700"><tspan x="0" y="0">NOVO</tspan></text>
    </g>
  </g>
</svg>
