<svg xmlns="http://www.w3.org/2000/svg" width="244.928" height="232.847" viewBox="0 0 244.928 232.847">
  <g id="Grupo_9" data-name="Grupo 9" transform="translate(-4071.606 -621.253)">
    <g id="projetos_icones_pjmt_v2_final-12" transform="translate(4052.395 597.653)">
      <g id="Grupo_4" data-name="Grupo 4" transform="translate(19.211 23.6)">
        <g id="Grupo_3" data-name="Grupo 3">
          <g id="Grupo_2" data-name="Grupo 2">
            <g id="Grupo_1" data-name="Grupo 1">
              <path id="Caminho_1" data-name="Caminho 1" d="M141.7,30.547h0l36.7,70.4,78.851,13.431-56.5,56.967L213.025,249.5,141.7,213.258,70.492,249.5l12.273-78.156-56.62-56.967L105,100.945l36.7-70.4h0m0-6.947h0a6.849,6.849,0,0,0-6.137,3.705L100.48,94.693,24.988,107.545a7.115,7.115,0,0,0-5.442,4.747,6.983,6.983,0,0,0,1.737,7.063l54.072,54.42L63.66,248.457a7.152,7.152,0,0,0,2.779,6.716,6.489,6.489,0,0,0,4.053,1.274,6.008,6.008,0,0,0,3.126-.811l68.082-34.62,68.082,34.62a7.834,7.834,0,0,0,3.126.811,7.3,7.3,0,0,0,4.053-1.274,6.913,6.913,0,0,0,2.779-6.716l-11.694-74.682,54.072-54.42a6.964,6.964,0,0,0-3.705-11.81L182.92,94.693,147.837,27.421A6.957,6.957,0,0,0,141.7,23.6Z" transform="translate(-19.211 -23.6)" fill="#00417a"/>
            </g>
          </g>
        </g>
      </g>
      <g id="Grupo_8" data-name="Grupo 8" transform="translate(26.145 30.547)">
        <g id="Grupo_7" data-name="Grupo 7">
          <g id="Grupo_6" data-name="Grupo 6">
            <g id="Grupo_5" data-name="Grupo 5">
              <path id="Caminho_2" data-name="Caminho 2" d="M140.755,44.652l30.568,58.588a6.886,6.886,0,0,0,4.979,3.589l65.651,11.115-47.125,47.472a7.255,7.255,0,0,0-1.968,6.021l10.189,64.725L144,206.059a7.834,7.834,0,0,0-3.126-.811,6.008,6.008,0,0,0-3.126.811l-59.051,30.1,10.189-64.725a6.906,6.906,0,0,0-1.968-6.021L39.789,117.945,105.44,106.83a7.2,7.2,0,0,0,4.979-3.589l30.336-58.588m0-15.052h0l-36.7,70.4L25.2,113.429,81.7,170.4,69.43,248.552l71.209-36.241,71.209,36.241L199.574,170.4l56.5-56.967L177.228,100,140.755,29.6Z" transform="translate(-25.2 -29.6)" fill="#eec73a"/>
            </g>
          </g>
        </g>
      </g>
    </g>
    <g id="Grupo_168" data-name="Grupo 168" transform="translate(3357.868 604.31) rotate(-15.009)">
      <rect id="Retângulo_1" data-name="Retângulo 1" width="163.841" height="60.82" transform="translate(701 277.724)" fill="#189e2a"/>
      <text id="NOVO" transform="translate(718.656 325.071)" fill="#fff" font-size="45" font-family="SegoeUI-Bold, Segoe UI" font-weight="700"><tspan x="0" y="0">NOVO</tspan></text>
    </g>
  </g>
</svg>
