<?xml version="1.0" encoding="utf-8"?>
<!-- Generator: Adobe Illustrator 21.0.0, SVG Export Plug-In . SVG Version: 6.00 Build 0)  -->
<svg version="1.1" id="Layer_1" xmlns="http://www.w3.org/2000/svg" xmlns:xlink="http://www.w3.org/1999/xlink" x="0px" y="0px"
	 viewBox="0 0 250 250" style="enable-background:new 0 0 250 250;" xml:space="preserve">
<style type="text/css">
	.st0{fill:#B3B3B3;}
	.st1{fill:#EEC73A;}
	.st2{fill:#00417A;}
	.st3{fill:#CCCCCC;}
	.st4{fill-rule:evenodd;clip-rule:evenodd;fill:#EEC73A;}
	.st5{fill:#FFFFFF;}
	.st6{fill:#1D3567;}
	.st7{fill:none;stroke:#00417A;stroke-width:6.5;stroke-linecap:round;stroke-miterlimit:10;}
	.st8{fill-rule:evenodd;clip-rule:evenodd;fill:#00417A;}
	.st9{fill:none;stroke:#B3B3B3;stroke-width:6;stroke-miterlimit:10;}
</style>
<g>
	<g>
		<g>
			<g>
				<path class="st0" d="M223.5,7.6c3.5-1,7.5-0.4,10.9,1.4c1.8,0.9,3.3,2.1,4.7,3.6c1.4,1.5,2.5,3.4,3.2,5.5
					c0.3,1.1,0.6,2.2,0.6,3.3c0,0.3,0,0.5,0,0.7l0,0.6l0,1.3l0,5.2l0,10.4l0.1,41.4l-0.1,41.4c-0.1,13.8,0,27.6-0.1,41.4l0,3.1
					l-3.1,0.1l-58,2.7l-29,1.3l-14.5,0.6l-7.3,0.3c-2.4,0.1-4.8,0.2-7.4,0.2c-1.7,0-3.2-1.4-3.2-3.1c0-1.7,1.4-3.2,3.1-3.2l0.1,0
					c2.3,0,4.7-0.1,7.1-0.2l7.2-0.3l14.5-0.7l29-1.4l58-2.8l-3.1,3.3c-0.1-13.8-0.1-27.6-0.1-41.4L236.2,81l0.1-41.4l0-10.4l0-5.2
					l0-2.5c0-0.6,0-1.2-0.1-1.8c-0.2-1.2-0.7-2.5-1.4-3.7c-0.7-1.2-1.7-2.3-2.8-3.5c-0.6-0.5-1.2-1-1.8-1.5c-0.6-0.5-1.3-1-2-1.4
					C226.8,8.8,225.3,8.1,223.5,7.6z"/>
			</g>
		</g>
	</g>
</g>
<g>
	<g>
		<g>
			<g>
				<g>
					<g>
						<g>
							<path class="st0" d="M26.4,161.7c-1.4,2.5-4.1,4.3-7.2,4.8c-3.1,0.6-6.6-0.3-9.3-2.3c-2.7-2-4.7-5.3-5.1-8.8
								c-0.2-1.8-0.1-3.6,0.4-5.3c0.5-1.7,1.3-3.4,2.4-4.8c1.3-1.5,2.1-2.2,3.1-3.2c1-0.9,2-1.9,3-2.8c2-1.8,4-3.6,6.2-5.3
								c4.2-3.5,8.6-6.8,13.4-9.6c-2.8,4.9-6.1,9.2-9.6,13.4c-1.7,2.1-3.5,4.1-5.3,6.2c-0.9,1-1.9,2-2.8,3c-0.9,0.9-2.1,2.1-2.5,2.6
								c-1.1,1.4-1.7,3.3-1.7,5.2c0,1.9,0.8,3.8,2.1,5.3c1.3,1.5,3.3,2.7,5.6,3C21.4,163.5,23.9,163,26.4,161.7z"/>
						</g>
					</g>
				</g>
			</g>
		</g>
	</g>
</g>
<g>
	<g>
		<g>
			<g>
				<path class="st1" d="M117,209.1v24.6H85.9c-4.6,0-8.3,3.7-8.3,8.3v4.8h94.8V242c0-4.6-3.7-8.3-8.3-8.3H133v-24.6H117z"/>
			</g>
		</g>
	</g>
</g>
<g>
	<g>
		<g>
			<g>
				<g>
					<path class="st3" d="M247.1,170.1H3.2v14.1c0,13.3,11.1,24.1,24.7,24.1h194.4c13.7,0,24.7-10.8,24.7-24.1V170.1z"/>
				</g>
			</g>
		</g>
	</g>
</g>
<g>
	<g>
		<g>
			<g>
				<path class="st2" d="M227.7,212H22.6c-12.2,0-22.1-9.9-22.1-22.1V23.6c0-12.2,9.9-22.1,22.1-22.1h205.1
					c12.2,0,22.1,9.9,22.1,22.1v166.3C249.8,202.1,239.9,212,227.7,212z M22.6,8C14,8,7,15,7,23.6v166.3c0,8.6,7,15.6,15.6,15.6
					h205.1c8.6,0,15.6-7,15.6-15.6V23.6c0-8.6-7-15.6-15.6-15.6H22.6z"/>
			</g>
		</g>
	</g>
</g>
<g>
	<g>
		<g>
			<g>
				<path class="st2" d="M172.6,249.7H77.7c-1.8,0-3.3-1.5-3.3-3.3v-4.8c0-6.4,5.2-11.5,11.5-11.5h27.9v-21.3h6.5v24.6
					c0,1.8-1.5,3.3-3.3,3.3H86c-2.8,0-5,2.3-5,5v1.6h88.3v-1.6c0-2.8-2.3-5-5-5h-31.1c-1.8,0-3.3-1.5-3.3-3.3v-24.6h6.5v21.3h27.9
					c6.4,0,11.5,5.2,11.5,11.5v4.8C175.8,248.2,174.4,249.7,172.6,249.7z"/>
			</g>
		</g>
	</g>
</g>
<g>
	<g>
		<g>
			<g>
				<rect x="3.8" y="166.3" class="st2" width="242.8" height="6.5"/>
			</g>
		</g>
	</g>
</g>
<g>
	<g>
		<g>
			<g>
				<circle class="st1" cx="125.2" cy="189.5" r="6.1"/>
			</g>
		</g>
	</g>
	<g>
		<g>
			<g>
				<path class="st2" d="M125.2,198.8c-5.1,0-9.3-4.2-9.3-9.3s4.2-9.3,9.3-9.3s9.3,4.2,9.3,9.3S130.3,198.8,125.2,198.8z
					 M125.2,186.6c-1.5,0-2.8,1.3-2.8,2.8s1.3,2.8,2.8,2.8s2.8-1.3,2.8-2.8S126.7,186.6,125.2,186.6z"/>
			</g>
		</g>
	</g>
</g>
<g>
	<g>
		<g>
			<g>
				<g>
					<circle class="st5" cx="88" cy="84.6" r="69.6"/>
				</g>
			</g>
		</g>
	</g>
	<g>
		<g>
			<g>
				<g>
					<g>
						<g>
							<g>
								<path class="st1" d="M85.6,126.2c-1.8,0-3.3-1.5-3.3-3.3s1.5-3.3,3.3-3.3c19.9,0,36.2-16.2,36.2-36.2c0-1.8,1.5-3.3,3.3-3.3
									s3.3,1.5,3.3,3.3C128.3,107.1,109.1,126.2,85.6,126.2z"/>
							</g>
						</g>
					</g>
				</g>
			</g>
		</g>
	</g>
	<g>
		<g>
			<g>
				<g>
					<g>
						<g>
							<path class="st2" d="M88,157.8c-40.4,0-73.2-32.8-73.2-73.2c0-40.4,32.8-73.2,73.2-73.2c40.4,0,73.2,32.8,73.2,73.2
								C161.2,125,128.3,157.8,88,157.8z M88,18c-36.8,0-66.7,29.9-66.7,66.7c0,36.8,29.9,66.7,66.7,66.7
								c36.8,0,66.7-29.9,66.7-66.7C154.7,47.9,124.8,18,88,18z"/>
						</g>
					</g>
				</g>
			</g>
		</g>
	</g>
	<g>
		<g>
			<g>
				<g>
					<g>
						<g>
							<path class="st2" d="M88,140.7c-30.9,0-56.1-25.2-56.1-56.1c0-30.9,25.2-56.1,56.1-56.1c30.9,0,56.1,25.2,56.1,56.1
								C144.1,115.6,118.9,140.7,88,140.7z M88,35.1c-27.3,0-49.6,22.2-49.6,49.6c0,27.3,22.2,49.6,49.6,49.6
								c27.3,0,49.6-22.2,49.6-49.6C137.6,57.3,115.3,35.1,88,35.1z"/>
						</g>
					</g>
				</g>
			</g>
		</g>
	</g>
	<g>
		<g>
			<g>
				<g>
					<g>
						<g>
							<path class="st2" d="M18.9,171.8c-4.8,0-9.3-1.9-12.7-5.3c-7-7-7-18.4,0-25.4l18.9-18.9c1.3-1.3,3.3-1.3,4.6,0s1.3,3.3,0,4.6
								l-18.9,18.9c-4.5,4.5-4.5,11.8,0,16.2c2.2,2.2,5,3.4,8.1,3.4c3.1,0,6-1.2,8.1-3.4l18.9-18.9c1.3-1.3,3.3-1.3,4.6,0
								c1.3,1.3,1.3,3.3,0,4.6l-18.9,18.9C28.2,169.9,23.7,171.8,18.9,171.8z"/>
						</g>
					</g>
				</g>
			</g>
		</g>
	</g>
</g>
<g>
	<g>
		<g>
			<g>
				<path class="st0" d="M71.3,20c8.4-2.4,17.5-2.9,26.3-1.7c8.8,1.3,17.4,4.4,25.1,9.1c7.7,4.7,14.4,11,19.7,18.4
					c5.2,7.4,8.9,15.9,10.9,24.7c1.9,8.9,2.1,18.1,0.4,27c-1.7,8.9-5.2,17.4-10.2,24.9c-5,7.5-11.6,13.9-19,18.7
					c-7.5,4.8-15.9,8.1-24.6,9.4c8.4-2.4,16.4-6.2,23.2-11.4c6.9-5.1,12.7-11.6,17.2-18.8c8.9-14.5,12-32.3,8.3-48.7
					c-3.5-16.5-13.7-31.4-27.8-40.9c-7.1-4.7-15-8.2-23.4-10C88.8,18.9,80,18.7,71.3,20z"/>
			</g>
		</g>
	</g>
</g>
<g>
	<g>
		<g>
			<g>
				<path class="st0" d="M130.7,109.4c-3,5.7-7.4,10.8-12.7,14.8c-5.3,4-11.4,7-17.9,8.6c-6.5,1.7-13.4,1.8-20.1,0.8
					c-6.7-1.1-13.1-3.6-18.8-7.3c-5.7-3.7-10.6-8.5-14.4-14.1c-3.7-5.6-6.4-12-7.6-18.6c-1.3-6.6-1.1-13.4,0.4-19.9
					c1.5-6.4,4.3-12.5,8.2-17.7c-3,5.7-5.1,11.9-5.8,18.1c-0.8,6.2-0.4,12.6,1,18.6c3,12,10.6,22.7,21,29.3
					c10.3,6.7,23.2,9.2,35.4,6.9c6.1-1.2,12-3.4,17.4-6.8C122,119,126.8,114.6,130.7,109.4z"/>
			</g>
		</g>
	</g>
</g>
</svg>
