<?xml version="1.0" encoding="utf-8"?>
<!-- Generator: Adobe Illustrator 21.0.0, SVG Export Plug-In . SVG Version: 6.00 Build 0)  -->
<svg version="1.1" id="Layer_1" xmlns="http://www.w3.org/2000/svg" xmlns:xlink="http://www.w3.org/1999/xlink" x="0px" y="0px"
	 viewBox="0 0 250 250" style="enable-background:new 0 0 250 250;" xml:space="preserve">
<style type="text/css">
	.st0{fill:#B3B3B3;}
	.st1{fill:#EEC73A;}
	.st2{fill:#00417A;}
	.st3{fill:#CCCCCC;}
	.st4{fill-rule:evenodd;clip-rule:evenodd;fill:#EEC73A;}
	.st5{fill:#FFFFFF;}
	.st6{fill:#1D3567;}
	.st7{fill:none;stroke:#00417A;stroke-width:6.5;stroke-linecap:round;stroke-miterlimit:10;}
	.st8{fill-rule:evenodd;clip-rule:evenodd;fill:#00417A;}
	.st9{fill:none;stroke:#B3B3B3;stroke-width:6;stroke-miterlimit:10;}
</style>
<g>
	<g>
		<g>
			<g>
				<g>
					<path class="st0" d="M77.8,18.2L77.8,18.2h-42c-12.1,0-21.9,9.8-21.9,21.9v0.3v36.5v0.6c0,1.8,1.5,3.3,3.3,3.3
						c1.8,0,3.3-1.5,3.3-3.3v-0.6V40.4v-0.3c0-8.4,6.9-15.3,15.3-15.3h41.9h0h0.1c1.8,0,3.3-1.5,3.3-3.3
						C81.1,19.7,79.6,18.2,77.8,18.2z"/>
				</g>
			</g>
		</g>
	</g>
	<g>
		<g>
			<g>
				<g>
					<path class="st0" d="M172.2,18.2L172.2,18.2h42c12.1,0,21.9,9.8,21.9,21.9v0.3v36.5v0.6c0,1.8-1.5,3.3-3.3,3.3
						c-1.8,0-3.3-1.5-3.3-3.3v-0.6V40.4v-0.3c0-8.4-6.9-15.3-15.3-15.3h-41.9h0h-0.1c-1.8,0-3.3-1.5-3.3-3.3
						C168.9,19.7,170.4,18.2,172.2,18.2z"/>
				</g>
			</g>
		</g>
	</g>
	<g>
		<g>
			<g>
				<g>
					<path class="st0" d="M77.8,231.8L77.8,231.8h-42c-12.1,0-21.9-9.8-21.9-21.9v-0.3v-36.5v-0.6c0-1.8,1.5-3.3,3.3-3.3
						c1.8,0,3.3,1.5,3.3,3.3v0.6v36.5v0.3c0,8.4,6.9,15.3,15.3,15.3h41.9h0h0.1c1.8,0,3.3,1.5,3.3,3.3
						C81.1,230.3,79.6,231.8,77.8,231.8z"/>
				</g>
			</g>
		</g>
	</g>
	<g>
		<g>
			<g>
				<g>
					<path class="st0" d="M172.2,231.8L172.2,231.8h42c12.1,0,21.9-9.8,21.9-21.9v-0.3v-36.5v-0.6c0-1.8-1.5-3.3-3.3-3.3
						c-1.8,0-3.3,1.5-3.3,3.3v0.6v36.5v0.3c0,8.4-6.9,15.3-15.3,15.3h-41.9h0h-0.1c-1.8,0-3.3,1.5-3.3,3.3
						C168.9,230.3,170.4,231.8,172.2,231.8z"/>
				</g>
			</g>
		</g>
	</g>
</g>
<g>
	<g>
		<g>
			<g>
				<path class="st2" d="M84.9,98.7H51.1c-7.9,0-14.3-6.4-14.3-14.3V51.5c0-7.9,6.4-14.3,14.3-14.3h33.8c7.9,0,14.3,6.4,14.3,14.3
					v32.8C99.3,92.3,92.8,98.7,84.9,98.7z M51.1,45.7c-3.2,0-5.8,2.6-5.8,5.8v32.8c0,3.2,2.6,5.8,5.8,5.8h33.8
					c3.2,0,5.8-2.6,5.8-5.8V51.5c0-3.2-2.6-5.8-5.8-5.8H51.1z"/>
			</g>
		</g>
	</g>
</g>
<g>
	<g>
		<g>
			<g>
				<g>
					<path class="st1" d="M61.7,79.8c-3.2,0-5.7-2.6-5.7-5.7V62c0-3.2,2.6-5.8,5.7-5.8h12.5c3.2,0,5.7,2.6,5.7,5.7V74
						c0,3.2-2.6,5.8-5.7,5.8H61.7z"/>
				</g>
			</g>
		</g>
	</g>
	<g>
		<g>
			<g>
				<g>
					<path class="st2" d="M74.3,58.1c2.1,0,3.7,1.7,3.7,3.7V62v2.9v0.1v5.8V71V74V74c0,2.1-1.7,3.7-3.7,3.7H72h0h0H64h0h0h-2.3
						c-2.1,0-3.7-1.7-3.7-3.7V74V71v-0.1v-5.8v-0.1V62v-0.1c0-2.1,1.7-3.7,3.7-3.7H64h0h0H72h0h0H74.3 M74.3,54.1H72H64h-2.3
						c-4.3,0-7.7,3.5-7.7,7.7V62v2.9v0.1v5.8V71V74V74c0,4.3,3.5,7.7,7.7,7.7H64H72h2.3c4.3,0,7.7-3.5,7.7-7.7V74V71v-0.1v-5.8v-0.1
						V62v-0.1C82,57.6,78.5,54.1,74.3,54.1L74.3,54.1z"/>
				</g>
			</g>
		</g>
	</g>
</g>
<g>
	<g>
		<g>
			<g>
				<g>
					<path class="st1" d="M61.7,194.8c-3.2,0-5.7-2.6-5.7-5.7V177c0-3.2,2.6-5.8,5.7-5.8h12.5c3.2,0,5.7,2.6,5.7,5.7V189
						c0,3.2-2.6,5.8-5.7,5.8H61.7z"/>
				</g>
			</g>
		</g>
	</g>
	<g>
		<g>
			<g>
				<g>
					<path class="st2" d="M74.3,173.1c2.1,0,3.7,1.7,3.7,3.7v0.1v2.9v0.1v5.8v0.1v2.9v0.1c0,2.1-1.7,3.7-3.7,3.7H72h0h0H64h0h0h-2.3
						c-2.1,0-3.7-1.7-3.7-3.7V189V186v-0.1v-5.8v-0.1V177v-0.1c0-2.1,1.7-3.7,3.7-3.7H64h0h0H72h0h0H74.3 M74.3,169.1H72H64h-2.3
						c-4.3,0-7.7,3.5-7.7,7.7v0.1v2.9v0.1v5.8v0.1v2.9v0.1c0,4.3,3.5,7.7,7.7,7.7H64H72h2.3c4.3,0,7.7-3.5,7.7-7.7V189V186v-0.1
						v-5.8v-0.1V177v-0.1C82,172.6,78.5,169.1,74.3,169.1L74.3,169.1z"/>
				</g>
			</g>
		</g>
	</g>
</g>
<g>
	<g>
		<g>
			<g>
				<g>
					<path class="st1" d="M175.7,79.8c-3.2,0-5.7-2.6-5.7-5.7V62c0-3.2,2.6-5.8,5.7-5.8h12.5c3.2,0,5.7,2.6,5.7,5.7V74
						c0,3.2-2.6,5.8-5.7,5.8H175.7z"/>
				</g>
			</g>
		</g>
	</g>
	<g>
		<g>
			<g>
				<g>
					<path class="st2" d="M188.3,58.1c2.1,0,3.7,1.7,3.7,3.7V62v2.9v0.1v5.8V71V74V74c0,2.1-1.7,3.7-3.7,3.7H186h0h0H178h0h0h-2.3
						c-2.1,0-3.7-1.7-3.7-3.7V74V71v-0.1v-5.8v-0.1V62v-0.1c0-2.1,1.7-3.7,3.7-3.7h2.3h0h0h7.9h0h0H188.3 M188.3,54.1H186H178h-2.3
						c-4.3,0-7.7,3.5-7.7,7.7V62v2.9v0.1v5.8V71V74V74c0,4.3,3.5,7.7,7.7,7.7h2.3h7.9h2.3c4.3,0,7.7-3.5,7.7-7.7V74V71v-0.1v-5.8
						v-0.1V62v-0.1C196,57.6,192.5,54.1,188.3,54.1L188.3,54.1z"/>
				</g>
			</g>
		</g>
	</g>
</g>
<g>
	<g>
		<g>
			<g>
				<path class="st2" d="M198.9,98.7h-33.8c-7.9,0-14.3-6.4-14.3-14.3V51.5c0-7.9,6.4-14.3,14.3-14.3h33.8c7.9,0,14.3,6.4,14.3,14.3
					v32.8C213.3,92.3,206.8,98.7,198.9,98.7z M165.1,45.7c-3.2,0-5.8,2.6-5.8,5.8v32.8c0,3.2,2.6,5.8,5.8,5.8h33.8
					c3.2,0,5.8-2.6,5.8-5.8V51.5c0-3.2-2.6-5.8-5.8-5.8H165.1z"/>
			</g>
		</g>
	</g>
</g>
<g>
	<g>
		<g>
			<g>
				<path class="st2" d="M84.9,213.7H51.1c-7.9,0-14.3-6.4-14.3-14.3v-32.8c0-7.9,6.4-14.3,14.3-14.3h33.8c7.9,0,14.3,6.4,14.3,14.3
					v32.8C99.3,207.3,92.8,213.7,84.9,213.7z M51.1,160.7c-3.2,0-5.8,2.6-5.8,5.8v32.8c0,3.2,2.6,5.8,5.8,5.8h33.8
					c3.2,0,5.8-2.6,5.8-5.8v-32.8c0-3.2-2.6-5.8-5.8-5.8H51.1z"/>
			</g>
		</g>
	</g>
</g>
<g>
	<g>
		<g>
			<g>
				<g>
					<g>
						<path class="st1" d="M43.5,138.5c-3,0-5.5-2.5-5.5-5.5v-15c0-1.6,0.7-3.1,1.9-4.1c1.1-1.2,2.5-1.9,4.1-1.9h15
							c3,0,5.5,2.5,5.5,5.5S62,123,59,123H49v10C49,136,46.5,138.5,43.5,138.5z"/>
					</g>
				</g>
			</g>
		</g>
		<g>
			<g>
				<g>
					<g>
						<path class="st2" d="M59,114c1.9,0,3.5,1.6,3.5,3.5S60.9,121,59,121H47v12c0,1.9-1.6,3.5-3.5,3.5S40,134.9,40,133v-15
							c0-1.1,0.5-2.1,1.3-2.7c0.6-0.8,1.6-1.3,2.7-1.3H59 M59,110H44c-2.1,0-4.1,0.9-5.5,2.5c-1.6,1.4-2.5,3.4-2.5,5.5v15
							c0,4.1,3.4,7.5,7.5,7.5s7.5-3.4,7.5-7.5v-8h8c4.1,0,7.5-3.4,7.5-7.5S63.1,110,59,110L59,110z"/>
					</g>
				</g>
			</g>
		</g>
	</g>
	<g>
		<g>
			<g>
				<g>
					<g>
						<path class="st1" d="M131.5,212c-3,0-5.5-2.5-5.5-5.5V198h-7.5c-3,0-5.5-2.5-5.5-5.5v-14c0-3,2.5-5.5,5.5-5.5s5.5,2.5,5.5,5.5
							v8.5h7.5c3,0,5.5,2.5,5.5,5.5v8.5h8.5c3,0,5.5,2.5,5.5,5.5s-2.5,5.5-5.5,5.5H131.5z"/>
					</g>
				</g>
			</g>
		</g>
		<g>
			<g>
				<g>
					<g>
						<path class="st2" d="M118.5,175c1.9,0,3.5,1.6,3.5,3.5V189h9.5c1.9,0,3.5,1.6,3.5,3.5V203h10.5c1.9,0,3.5,1.6,3.5,3.5
							s-1.6,3.5-3.5,3.5h-14c-1.9,0-3.5-1.6-3.5-3.5V196h-9.5c-1.9,0-3.5-1.6-3.5-3.5v-14C115,176.6,116.6,175,118.5,175 M118.5,171
							c-4.1,0-7.5,3.4-7.5,7.5v14c0,4.1,3.4,7.5,7.5,7.5h5.5v6.5c0,4.1,3.4,7.5,7.5,7.5h14c4.1,0,7.5-3.4,7.5-7.5s-3.4-7.5-7.5-7.5
							H139v-6.5c0-4.1-3.4-7.5-7.5-7.5H126v-6.5C126,174.4,122.6,171,118.5,171L118.5,171z"/>
					</g>
				</g>
			</g>
		</g>
	</g>
	<g>
		<g>
			<g>
				<g>
					<g>
						<path class="st1" d="M173.5,212c-3,0-5.5-2.5-5.5-5.5s2.5-5.5,5.5-5.5H188v-8.5c0-3,2.5-5.5,5.5-5.5s5.5,2.5,5.5,5.5v8.5h7.5
							c3,0,5.5,2.5,5.5,5.5s-2.5,5.5-5.5,5.5H173.5z"/>
					</g>
				</g>
			</g>
		</g>
		<g>
			<g>
				<g>
					<g>
						<path class="st2" d="M193.5,189c1.9,0,3.5,1.6,3.5,3.5V203h9.5c1.9,0,3.5,1.6,3.5,3.5s-1.6,3.5-3.5,3.5h-33
							c-1.9,0-3.5-1.6-3.5-3.5s1.6-3.5,3.5-3.5H190v-10.5C190,190.6,191.6,189,193.5,189 M193.5,185c-4.1,0-7.5,3.4-7.5,7.5v6.5
							h-12.5c-4.1,0-7.5,3.4-7.5,7.5s3.4,7.5,7.5,7.5h33c4.1,0,7.5-3.4,7.5-7.5s-3.4-7.5-7.5-7.5H201v-6.5
							C201,188.4,197.6,185,193.5,185L193.5,185z"/>
					</g>
				</g>
			</g>
		</g>
	</g>
	<g>
		<g>
			<g>
				<g>
					<g>
						<path class="st1" d="M162.5,191c-3,0-5.5-2.5-5.5-5.5s2.5-5.5,5.5-5.5h5c3,0,5.5,2.5,5.5,5.5s-2.5,5.5-5.5,5.5H162.5z"/>
					</g>
				</g>
			</g>
		</g>
		<g>
			<g>
				<g>
					<g>
						<path class="st2" d="M167.5,182c1.9,0,3.5,1.6,3.5,3.5s-1.6,3.5-3.5,3.5h-5c-1.9,0-3.5-1.6-3.5-3.5s1.6-3.5,3.5-3.5H167.5
							 M167.5,178h-5c-4.1,0-7.5,3.4-7.5,7.5s3.4,7.5,7.5,7.5h5c4.1,0,7.5-3.4,7.5-7.5S171.6,178,167.5,178L167.5,178z"/>
					</g>
				</g>
			</g>
		</g>
	</g>
	<g>
		<g>
			<g>
				<g>
					<g>
						<path class="st1" d="M206.5,123c-0.4,0-0.7,0-1.1-0.1c-0.4-0.1-0.7-0.2-1.1-0.3c-0.4-0.2-0.7-0.3-0.9-0.5
							c-0.3-0.2-0.6-0.4-0.8-0.7c-1-1-1.6-2.4-1.6-3.9c0-1.5,0.6-2.9,1.6-3.9c0.2-0.2,0.5-0.4,0.8-0.7c0.3-0.2,0.6-0.4,0.9-0.5
							c0.4-0.2,0.7-0.3,1.1-0.3c0.3-0.1,0.7-0.1,1-0.1s0.7,0,1.1,0.1c0.3,0.1,0.7,0.2,1.1,0.3c0.4,0.2,0.7,0.3,0.9,0.5
							c0.3,0.2,0.6,0.4,0.8,0.7c1,1,1.6,2.4,1.6,3.9c0,1.4-0.6,2.9-1.6,3.9c-0.3,0.3-0.5,0.5-0.8,0.7c-0.3,0.2-0.6,0.3-0.9,0.5
							c-0.4,0.1-0.7,0.3-1.1,0.3C207.2,123,206.9,123,206.5,123z"/>
					</g>
				</g>
			</g>
		</g>
		<g>
			<g>
				<g>
					<g>
						<path class="st2" d="M206.5,114c0.2,0,0.5,0,0.7,0.1c0.2,0,0.5,0.1,0.7,0.2c0.2,0.1,0.4,0.2,0.6,0.3c0.2,0.1,0.4,0.3,0.5,0.4
							c0.6,0.6,1,1.5,1,2.5c0,0.9-0.4,1.8-1,2.5c-0.2,0.2-0.4,0.3-0.5,0.4c-0.2,0.1-0.4,0.2-0.6,0.3c-0.2,0.1-0.4,0.2-0.7,0.2
							c-0.2,0.1-0.4,0.1-0.7,0.1s-0.5,0-0.7-0.1c-0.2,0-0.5-0.1-0.7-0.2c-0.2-0.1-0.4-0.2-0.6-0.3c-0.2-0.1-0.4-0.3-0.5-0.4
							c-0.7-0.7-1-1.6-1-2.5c0-0.9,0.4-1.8,1-2.5c0.2-0.2,0.3-0.3,0.5-0.4c0.2-0.1,0.4-0.2,0.6-0.3c0.2-0.1,0.4-0.2,0.7-0.2
							C206,114,206.3,114,206.5,114 M206.5,110c-0.5,0-1,0-1.4,0.1c-0.5,0.1-1,0.2-1.5,0.5c-0.5,0.2-0.9,0.4-1.3,0.7
							c-0.4,0.3-0.8,0.6-1.1,0.9c-1.4,1.4-2.2,3.3-2.2,5.3c0,2,0.8,3.9,2.2,5.3c0.3,0.3,0.7,0.6,1.1,0.9c0.4,0.3,0.8,0.5,1.3,0.7
							c0.5,0.2,1,0.4,1.5,0.4c0.5,0.1,1,0.1,1.5,0.1c0.5,0,1,0,1.5-0.1c0.5-0.1,1-0.2,1.4-0.4c0.5-0.2,0.9-0.4,1.3-0.7
							c0.4-0.3,0.7-0.5,1-0.8l0.1-0.1l0.1-0.1c1.4-1.4,2.2-3.3,2.2-5.3c0-2-0.8-3.9-2.2-5.3c-0.3-0.3-0.7-0.6-1.1-0.9
							c-0.4-0.3-0.8-0.5-1.3-0.7c-0.5-0.2-1-0.4-1.5-0.5C207.5,110,207,110,206.5,110L206.5,110z"/>
					</g>
				</g>
			</g>
		</g>
	</g>
	<g>
		<g>
			<g>
				<g>
					<g>
						<path class="st1" d="M170.5,151c-3,0-5.5-2.5-5.5-5.5V123h-18.5c-3,0-5.5-2.5-5.5-5.5s2.5-5.5,5.5-5.5h24c3,0,5.5,2.5,5.5,5.5
							v8.5h9.5c3,0,5.5,2.5,5.5,5.5s-2.5,5.5-5.5,5.5H176v8.5C176,148.5,173.5,151,170.5,151z"/>
					</g>
				</g>
			</g>
		</g>
		<g>
			<g>
				<g>
					<g>
						<path class="st2" d="M170.5,114c1.9,0,3.5,1.6,3.5,3.5V128h11.5c1.9,0,3.5,1.6,3.5,3.5s-1.6,3.5-3.5,3.5H174v10.5
							c0,1.9-1.6,3.5-3.5,3.5s-3.5-1.6-3.5-3.5V121h-20.5c-1.9,0-3.5-1.6-3.5-3.5s1.6-3.5,3.5-3.5H170.5 M170.5,110h-24
							c-4.1,0-7.5,3.4-7.5,7.5s3.4,7.5,7.5,7.5H163v20.5c0,4.1,3.4,7.5,7.5,7.5s7.5-3.4,7.5-7.5V139h7.5c4.1,0,7.5-3.4,7.5-7.5
							c0-4.1-3.4-7.5-7.5-7.5H178v-6.5C178,113.4,174.6,110,170.5,110L170.5,110z"/>
					</g>
				</g>
			</g>
		</g>
	</g>
	<g>
		<g>
			<g>
				<g>
					<g>
						<path class="st1" d="M135.5,170.5c-3,0-5.5-2.5-5.5-5.5s2.5-5.5,5.5-5.5h4.5v-14c0-3,2.5-5.5,5.5-5.5s5.5,2.5,5.5,5.5v19
							c0,0.1,0,0.2,0,0.3c0,0.1,0,0.2,0,0.2c0,3-2.5,5.5-5.5,5.5H135.5z"/>
					</g>
				</g>
			</g>
		</g>
		<g>
			<g>
				<g>
					<g>
						<path class="st2" d="M145.5,142c1.9,0,3.5,1.6,3.5,3.5v19c0,0.1,0,0.2,0,0.3c0,0.1,0,0.2,0,0.3c0,1.9-1.6,3.5-3.5,3.5h-10
							c-1.9,0-3.5-1.6-3.5-3.5s1.6-3.5,3.5-3.5h6.5v-16C142,143.6,143.6,142,145.5,142 M145.5,138c-4.1,0-7.5,3.4-7.5,7.5v12h-2.5
							c-4.1,0-7.5,3.4-7.5,7.5s3.4,7.5,7.5,7.5h10c4.1,0,7.5-3.4,7.5-7.5c0-0.1,0-0.2,0-0.3c0-0.1,0-0.2,0-0.2v-19
							C153,141.4,149.6,138,145.5,138L145.5,138z"/>
					</g>
				</g>
			</g>
		</g>
	</g>
	<g>
		<g>
			<g>
				<g>
					<g>
						<path class="st1" d="M187.5,170.5c-3,0-5.5-2.5-5.5-5.5s2.5-5.5,5.5-5.5H201v-14c0-3,2.5-5.5,5.5-5.5s5.5,2.5,5.5,5.5v19
							c0,0.1,0,0.2,0,0.3c0,0.1,0,0.2,0,0.2c0,3-2.5,5.5-5.5,5.5H187.5z"/>
					</g>
				</g>
			</g>
		</g>
		<g>
			<g>
				<g>
					<g>
						<path class="st2" d="M206.5,142c1.9,0,3.5,1.6,3.5,3.5v19c0,0.1,0,0.2,0,0.3c0,0.1,0,0.2,0,0.3c0,1.9-1.6,3.5-3.5,3.5h-19
							c-1.9,0-3.5-1.6-3.5-3.5s1.6-3.5,3.5-3.5H203v-16C203,143.6,204.6,142,206.5,142 M206.5,138c-4.1,0-7.5,3.4-7.5,7.5v12h-11.5
							c-4.1,0-7.5,3.4-7.5,7.5s3.4,7.5,7.5,7.5h19c4.1,0,7.5-3.4,7.5-7.5c0-0.1,0-0.2,0-0.3c0-0.1,0-0.2,0-0.2v-19
							C214,141.4,210.6,138,206.5,138L206.5,138z"/>
					</g>
				</g>
			</g>
		</g>
	</g>
	<g>
		<g>
			<g>
				<g>
					<g>
						<path class="st1" d="M118.5,110c-3,0-5.5-2.5-5.5-5.5v-22c0-3,2.5-5.5,5.5-5.5h7.5V62h-7.5c-3,0-5.5-2.5-5.5-5.5
							s2.5-5.5,5.5-5.5h7.5v-7.5c0-3,2.5-5.5,5.5-5.5s5.5,2.5,5.5,5.5v39c0,3-2.5,5.5-5.5,5.5H124v16.5
							C124,107.5,121.5,110,118.5,110z"/>
					</g>
				</g>
			</g>
		</g>
		<g>
			<g>
				<g>
					<g>
						<path class="st2" d="M131.5,40c1.9,0,3.5,1.6,3.5,3.5v39c0,1.9-1.6,3.5-3.5,3.5H122v18.5c0,1.9-1.6,3.5-3.5,3.5
							s-3.5-1.6-3.5-3.5v-22c0-1.9,1.6-3.5,3.5-3.5h9.5V60h-9.5c-1.9,0-3.5-1.6-3.5-3.5s1.6-3.5,3.5-3.5h9.5v-9.5
							C128,41.6,129.6,40,131.5,40 M131.5,36c-4.1,0-7.5,3.4-7.5,7.5V49h-5.5c-4.1,0-7.5,3.4-7.5,7.5s3.4,7.5,7.5,7.5h5.5v11h-5.5
							c-4.1,0-7.5,3.4-7.5,7.5v22c0,4.1,3.4,7.5,7.5,7.5s7.5-3.4,7.5-7.5V90h5.5c4.1,0,7.5-3.4,7.5-7.5v-39
							C139,39.4,135.6,36,131.5,36L131.5,36z"/>
					</g>
				</g>
			</g>
		</g>
	</g>
	<g>
		<g>
			<g>
				<g>
					<g>
						<path class="st1" d="M117.5,150c-3,0-5.5-2.5-5.5-5.5V137H76.5c-3,0-5.5-2.5-5.5-5.5s2.5-5.5,5.5-5.5H81v-8.5
							c0-3,2.5-5.5,5.5-5.5s5.5,2.5,5.5,5.5v8.5h25.5c3,0,5.5,2.5,5.5,5.5v13C123,147.5,120.5,150,117.5,150z"/>
					</g>
				</g>
			</g>
		</g>
		<g>
			<g>
				<g>
					<g>
						<path class="st2" d="M86.5,114c1.9,0,3.5,1.6,3.5,3.5V128h27.5c1.9,0,3.5,1.6,3.5,3.5v13c0,1.9-1.6,3.5-3.5,3.5
							s-3.5-1.6-3.5-3.5V135H76.5c-1.9,0-3.5-1.6-3.5-3.5s1.6-3.5,3.5-3.5H83v-10.5C83,115.6,84.6,114,86.5,114 M86.5,110
							c-4.1,0-7.5,3.4-7.5,7.5v6.5h-2.5c-4.1,0-7.5,3.4-7.5,7.5s3.4,7.5,7.5,7.5H110v5.5c0,4.1,3.4,7.5,7.5,7.5s7.5-3.4,7.5-7.5v-13
							c0-4.1-3.4-7.5-7.5-7.5H94v-6.5C94,113.4,90.6,110,86.5,110L86.5,110z"/>
					</g>
				</g>
			</g>
		</g>
	</g>
</g>
</svg>
