<?xml version="1.0" encoding="utf-8"?>
<!-- Generator: Adobe Illustrator 21.0.0, SVG Export Plug-In . SVG Version: 6.00 Build 0)  -->
<svg version="1.1" id="Layer_1" xmlns="http://www.w3.org/2000/svg" xmlns:xlink="http://www.w3.org/1999/xlink" x="0px" y="0px"
	 viewBox="0 0 250 250" style="enable-background:new 0 0 250 250;" xml:space="preserve">
<style type="text/css">
	.st0{fill:#B3B3B3;}
	.st1{fill:#EEC73A;}
	.st2{fill:#00417A;}
	.st3{fill:#CCCCCC;}
	.st4{fill-rule:evenodd;clip-rule:evenodd;fill:#EEC73A;}
	.st5{fill:#FFFFFF;}
	.st6{fill:#1D3567;}
	.st7{fill:none;stroke:#00417A;stroke-width:6.5;stroke-linecap:round;stroke-miterlimit:10;}
	.st8{fill-rule:evenodd;clip-rule:evenodd;fill:#00417A;}
	.st9{fill:none;stroke:#B3B3B3;stroke-width:6;stroke-miterlimit:10;}
</style>
<g>
	<g>
		<g>
			<g>
				<path class="st1" d="M28.9,117.1c-2.6,0-4.8-2.1-4.8-4.8s2.1-4.8,4.8-4.8h39.5c2.6,0,4.8,2.1,4.8,4.8s-2.1,4.8-4.8,4.8H28.9z"/>
			</g>
			<g>
				<path class="st1" d="M68.5,108.1c2.3,0,4.3,1.9,4.3,4.3s-1.9,4.3-4.3,4.3H28.9c-2.3,0-4.3-1.9-4.3-4.3s1.9-4.3,4.3-4.3H68.5
					 M68.5,107.1H28.9c-2.9,0-5.3,2.4-5.3,5.3s2.4,5.3,5.3,5.3h39.5c2.9,0,5.3-2.4,5.3-5.3S71.4,107.1,68.5,107.1L68.5,107.1z"/>
			</g>
		</g>
	</g>
	<g>
		<g>
			<g>
				<path class="st1" d="M28.2,149c-2.6,0-4.8-2.1-4.8-4.8s2.1-4.8,4.8-4.8h39.9c2.6,0,4.8,2.1,4.8,4.8s-2.1,4.8-4.8,4.8H28.2z"/>
			</g>
			<g>
				<path class="st1" d="M68.1,140c2.3,0,4.3,1.9,4.3,4.3s-1.9,4.3-4.3,4.3H28.2c-2.3,0-4.3-1.9-4.3-4.3s1.9-4.3,4.3-4.3H68.1
					 M68.1,139H28.2c-2.9,0-5.3,2.4-5.3,5.3s2.4,5.3,5.3,5.3h39.9c2.9,0,5.3-2.4,5.3-5.3S71,139,68.1,139L68.1,139z"/>
			</g>
		</g>
	</g>
	<g>
		<g>
			<g>
				<path class="st1" d="M28.2,180.9c-2.6,0-4.8-2.1-4.8-4.8s2.1-4.8,4.8-4.8h39.9c2.6,0,4.8,2.1,4.8,4.8s-2.1,4.8-4.8,4.8H28.2z"/>
			</g>
			<g>
				<path class="st1" d="M68.1,171.9c2.3,0,4.3,1.9,4.3,4.3s-1.9,4.3-4.3,4.3H28.2c-2.3,0-4.3-1.9-4.3-4.3s1.9-4.3,4.3-4.3H68.1
					 M68.1,170.9H28.2c-2.9,0-5.3,2.4-5.3,5.3s2.4,5.3,5.3,5.3h39.9c2.9,0,5.3-2.4,5.3-5.3S71,170.9,68.1,170.9L68.1,170.9z"/>
			</g>
		</g>
	</g>
	<g>
		<g>
			<g>
				<path class="st1" d="M28.2,212.8c-2.6,0-4.8-2.1-4.8-4.8s2.1-4.8,4.8-4.8h39.9c2.6,0,4.8,2.1,4.8,4.8s-2.1,4.8-4.8,4.8H28.2z"/>
			</g>
			<g>
				<path class="st1" d="M68.1,203.8c2.3,0,4.3,1.9,4.3,4.3s-1.9,4.3-4.3,4.3H28.2c-2.3,0-4.3-1.9-4.3-4.3s1.9-4.3,4.3-4.3H68.1
					 M68.1,202.8H28.2c-2.9,0-5.3,2.4-5.3,5.3s2.4,5.3,5.3,5.3h39.9c2.9,0,5.3-2.4,5.3-5.3S71,202.8,68.1,202.8L68.1,202.8z"/>
			</g>
		</g>
	</g>
	<g>
		<g>
			<g>
				<path class="st1" d="M90.8,212.8c-2.6,0-4.8-2.1-4.8-4.8s2.1-4.8,4.8-4.8h39.9c2.6,0,4.8,2.1,4.8,4.8s-2.1,4.8-4.8,4.8H90.8z"/>
			</g>
			<g>
				<path class="st1" d="M130.6,203.8c2.3,0,4.3,1.9,4.3,4.3s-1.9,4.3-4.3,4.3H90.8c-2.3,0-4.3-1.9-4.3-4.3s1.9-4.3,4.3-4.3H130.6
					 M130.6,202.8H90.8c-2.9,0-5.3,2.4-5.3,5.3s2.4,5.3,5.3,5.3h39.9c2.9,0,5.3-2.4,5.3-5.3S133.5,202.8,130.6,202.8L130.6,202.8z"
					/>
			</g>
		</g>
	</g>
	<g>
		<g>
			<path class="st3" d="M220.6,76.1H4V62.9c0-12.4,10.3-22.4,23-22.4h170.5c12.7,0,23,10,23,22.4V76.1z"/>
		</g>
	</g>
	<g>
		<path class="st2" d="M96.4,43.7h-3c-1.8,0-3.3-1.5-3.3-3.3s1.5-3.3,3.3-3.3h3c1.8,0,3.3,1.5,3.3,3.3S98.2,43.7,96.4,43.7z"/>
	</g>
	<g>
		<path class="st2" d="M131.1,43.7h-3c-1.8,0-3.3-1.5-3.3-3.3s1.5-3.3,3.3-3.3h3c1.8,0,3.3,1.5,3.3,3.3S132.9,43.7,131.1,43.7z"/>
	</g>
	<g>
		<g>
			<path class="st3" d="M215.9,75.9v151.3c0,10.9-8.9,19.8-19.8,19.8H20.7c-10.9,0-19.8-8.9-19.8-19.8h6.3c0,7.4,6,13.5,13.5,13.5
				h175.5c7.4,0,13.5-6,13.5-13.5V75.9H215.9z"/>
		</g>
	</g>
	<g>
		<path class="st2" d="M201.6,250.7H20.9c-11.2,0-20.4-9.1-20.4-20.4V57.6c0-11.2,9.1-20.4,20.4-20.4h41c1.8,0,3.3,1.5,3.3,3.3
			s-1.5,3.3-3.3,3.3h-41C13.2,43.7,7,50,7,57.6v172.8c0,7.7,6.2,13.9,13.9,13.9h180.8c7.7,0,13.9-6.2,13.9-13.9V57.6
			c0-7.7-6.2-13.9-13.9-13.9h-38.9c-1.8,0-3.3-1.5-3.3-3.3s1.5-3.3,3.3-3.3h38.9c11.2,0,20.4,9.1,20.4,20.4v172.8
			C222,241.6,212.8,250.7,201.6,250.7z"/>
	</g>
	<g>
		<rect x="3.7" y="72.6" class="st2" width="215" height="7"/>
	</g>
	<g>
		<g>
			<g>
				<path class="st5" d="M164.3,233.2c-46.5,0-84.3-37.8-84.3-84.3c0-46.5,37.8-84.3,84.3-84.3c46.5,0,84.3,37.8,84.3,84.3
					C248.6,195.3,210.7,233.2,164.3,233.2z"/>
			</g>
		</g>
	</g>
	<g>
		<g>
			<g>
				<path class="st2" d="M164.3,234.8c-47.4,0-86-38.6-86-86c0-47.4,38.6-86,86-86c47.4,0,86,38.6,86,86
					C250.2,196.3,211.7,234.8,164.3,234.8z M164.3,69c-44,0-79.9,35.8-79.9,79.9c0,44,35.8,79.9,79.9,79.9c44,0,79.9-35.8,79.9-79.9
					C244.1,104.8,208.3,69,164.3,69z"/>
			</g>
		</g>
	</g>
	<g>
		<g>
			<g>
				<path class="st1" d="M77.7,56.7c-2.8,0-5-2.3-5-5V23.3c0-2.8,2.3-5,5-5s5,2.3,5,5v28.4C82.8,54.4,80.5,56.7,77.7,56.7z"/>
			</g>
			<g>
				<path class="st2" d="M77.7,20.2c1.7,0,3,1.4,3,3v28.4c0,1.7-1.4,3-3,3s-3-1.4-3-3V23.3C74.7,21.6,76,20.2,77.7,20.2 M77.7,16.2
					c-3.9,0-7,3.2-7,7v28.4c0,3.9,3.2,7,7,7s7-3.2,7-7V23.3C84.8,19.4,81.6,16.2,77.7,16.2L77.7,16.2z"/>
			</g>
		</g>
	</g>
	<g>
		<g>
			<g>
				<path class="st1" d="M112.3,56.7c-2.8,0-5-2.3-5-5V23.3c0-2.8,2.3-5,5-5c2.8,0,5,2.3,5,5v28.4C117.3,54.4,115.1,56.7,112.3,56.7
					z"/>
			</g>
			<g>
				<path class="st2" d="M112.3,20.2c1.7,0,3,1.4,3,3v28.4c0,1.7-1.4,3-3,3s-3-1.4-3-3V23.3C109.2,21.6,110.6,20.2,112.3,20.2
					 M112.3,16.2c-3.9,0-7,3.2-7,7v28.4c0,3.9,3.2,7,7,7s7-3.2,7-7V23.3C119.3,19.4,116.2,16.2,112.3,16.2L112.3,16.2z"/>
			</g>
		</g>
	</g>
	<g>
		<g>
			<g>
				<path class="st1" d="M146.9,56.7c-2.8,0-5-2.3-5-5V23.3c0-2.8,2.3-5,5-5c2.8,0,5,2.3,5,5v28.4C151.9,54.4,149.7,56.7,146.9,56.7
					z"/>
			</g>
			<g>
				<path class="st2" d="M146.9,20.2c1.7,0,3,1.4,3,3v28.4c0,1.7-1.4,3-3,3s-3-1.4-3-3V23.3C143.8,21.6,145.2,20.2,146.9,20.2
					 M146.9,16.2c-3.9,0-7,3.2-7,7v28.4c0,3.9,3.2,7,7,7s7-3.2,7-7V23.3C153.9,19.4,150.8,16.2,146.9,16.2L146.9,16.2z"/>
			</g>
		</g>
	</g>
	<g>
		<g>
			<g>
				<path class="st2" d="M214,171.2l-37.2-30.7c1.1-2.7,0.6-5.9-1.6-8.1c-0.6-0.6-1.3-1.1-2.1-1.5l3-3c3.4,0.9,7.1,0,9.6-2.6
					c3.9-3.9,3.9-10.2,0-14.1l-17.6-17.6c-3.9-3.9-10.2-3.9-14.1,0c-2.6,2.6-3.5,6.3-2.6,9.6l-23,23c-3.3-0.9-7-0.1-9.6,2.6
					c-3.9,3.9-3.9,10.2,0,14.1l17.6,17.6c3.9,3.9,10.2,3.9,14.1,0c1.9-1.9,2.9-4.4,2.9-7.1c0-0.9-0.1-1.8-0.3-2.6l3-3
					c0.4,0.8,0.9,1.5,1.5,2.1c2.2,2.2,5.4,2.7,8.1,1.7l30.8,37.1c0,0.1,0.1,0.1,0.2,0.2c4.9,4.9,12.8,4.9,17.6,0
					c4.9-4.9,4.9-12.8,0-17.6C214.1,171.3,214.1,171.2,214,171.2z M157.6,97.2c1.9-1.9,5.1-2,7,0l17.6,17.6c1.9,1.9,1.9,5.1,0,7.1
					c-1.9,1.9-5.1,1.9-7,0c0,0,0,0,0,0l-17.6-17.6c0,0,0,0,0,0C155.6,102.2,155.6,99.1,157.6,97.2z M147,157.1c-1.9,1.9-5.1,1.9-7,0
					l-17.6-17.6c-1.9-1.9-1.9-5.1,0-7.1c1.9-1.9,5.1-1.9,7,0L147,150c0,0,0,0,0,0C148.9,152,148.9,155.1,147,157.1z M150.5,146.5
					C150.5,146.5,150.5,146.5,150.5,146.5l-17.6-17.6l21.2-21.2l17.6,17.6l-7,7c0,0,0,0-0.1,0.1l-7,7.1L150.5,146.5z M161.1,146.5
					c-1-1-1-2.5,0-3.5h0c0,0,0,0,0,0l7-7c0,0,0,0,0.1-0.1c1-1,2.5-0.9,3.5,0c0.9,0.9,1,2.4,0.1,3.4c-0.1,0.1-0.1,0.1-0.2,0.2l-7,7
					c0,0-0.1,0.1-0.1,0.1c0,0,0,0,0,0C163.5,147.5,162,147.5,161.1,146.5z M210.7,185.5c-2.9,2.9-7.6,2.9-10.5,0.1l-30.6-36.9
					l4.2-4.2l37,30.5C213.6,177.9,213.6,182.6,210.7,185.5z"/>
			</g>
			<g>
				<path class="st1" d="M157.6,97.2c1.9-1.9,5.1-2,7,0l17.6,17.6c1.9,1.9,1.9,5.1,0,7.1c-1.9,1.9-5.1,1.9-7,0c0,0,0,0,0,0
					l-17.6-17.6c0,0,0,0,0,0C155.6,102.2,155.6,99.1,157.6,97.2z"/>
			</g>
			<g>
				<path class="st1" d="M147,157.1c-1.9,1.9-5.1,1.9-7,0l-17.6-17.6c-1.9-1.9-1.9-5.1,0-7.1c1.9-1.9,5.1-1.9,7,0L147,150
					c0,0,0,0,0,0C148.9,152,148.9,155.1,147,157.1z"/>
			</g>
			<g>
				<path class="st1" d="M161.1,146.5c-1-1-1-2.5,0-3.5h0c0,0,0,0,0,0l7-7c0,0,0,0,0.1-0.1c1-1,2.5-0.9,3.5,0c0.9,0.9,1,2.4,0.1,3.4
					c-0.1,0.1-0.1,0.1-0.2,0.2l-7,7c0,0-0.1,0.1-0.1,0.1c0,0,0,0,0,0C163.5,147.5,162,147.5,161.1,146.5z"/>
			</g>
		</g>
		<g>
			<g>
				<path class="st2" d="M127.6,200.6h57c1.3,0,2.4-1.1,2.4-2.4v-7.1c0-3.1-2-5.7-4.7-6.7V184c0-6.6-5.3-11.9-11.9-11.9h-28.5
					c-6.6,0-11.9,5.3-11.9,11.9v0.4c-2.8,1-4.8,3.6-4.8,6.7v7.1C125.2,199.6,126.3,200.6,127.6,200.6z M141.9,176.9h28.5
					c3.9,0,7.1,3.2,7.1,7.1h-42.8C134.7,180.1,137.9,176.9,141.9,176.9z M130,191.1c0-1.3,1.1-2.4,2.4-2.4h47.5
					c1.3,0,2.4,1.1,2.4,2.4v4.8H130V191.1z"/>
			</g>
			<g>
				<path class="st1" d="M141.9,176.9h28.5c3.9,0,7.1,3.2,7.1,7.1h-42.8C134.7,180.1,137.9,176.9,141.9,176.9z"/>
			</g>
			<g>
				<path class="st1" d="M130,191.1c0-1.3,1.1-2.4,2.4-2.4h47.5c1.3,0,2.4,1.1,2.4,2.4v4.8H130V191.1z"/>
			</g>
		</g>
	</g>
</g>
</svg>
