<?xml version="1.0" encoding="utf-8"?>
<!-- Generator: Adobe Illustrator 21.0.0, SVG Export Plug-In . SVG Version: 6.00 Build 0)  -->
<svg version="1.1" id="Layer_1" xmlns="http://www.w3.org/2000/svg" xmlns:xlink="http://www.w3.org/1999/xlink" x="0px" y="0px"
	 viewBox="0 0 250 250" style="enable-background:new 0 0 250 250;" xml:space="preserve">
<style type="text/css">
	.st0{fill:#B3B3B3;}
	.st1{fill:#EEC73A;}
	.st2{fill:#00417A;}
	.st3{fill:#CCCCCC;}
	.st4{fill-rule:evenodd;clip-rule:evenodd;fill:#EEC73A;}
	.st5{fill:#FFFFFF;}
	.st6{fill:#1D3567;}
	.st7{fill:none;stroke:#00417A;stroke-width:6.5;stroke-linecap:round;stroke-miterlimit:10;}
	.st8{fill-rule:evenodd;clip-rule:evenodd;fill:#00417A;}
	.st9{fill:none;stroke:#B3B3B3;stroke-width:6;stroke-miterlimit:10;}
</style>
<g>
	<g>
		<g>
			<g>
				<path class="st1" d="M20.5,219.8c-4.1,0-7.5-3.4-7.5-7.5V37.4c0-4.1,3.4-7.5,7.5-7.5s7.5,3.4,7.5,7.5v174.8
					C28,216.4,24.6,219.8,20.5,219.8z"/>
			</g>
		</g>
	</g>
</g>
<g>
	<g>
		<g>
			<g>
				<path class="st1" d="M125,219.8c-4.1,0-7.5-3.4-7.5-7.5V37.4c0-4.1,3.4-7.5,7.5-7.5c4.1,0,7.5,3.4,7.5,7.5v174.8
					C132.5,216.4,129.1,219.8,125,219.8z"/>
			</g>
		</g>
	</g>
</g>
<g>
	<g>
		<g>
			<g>
				<path class="st1" d="M229.3,219.8c-4.1,0-7.5-3.4-7.5-7.5V37.4c0-4.1,3.4-7.5,7.5-7.5s7.5,3.4,7.5,7.5v174.8
					C236.8,216.4,233.4,219.8,229.3,219.8z"/>
			</g>
		</g>
	</g>
</g>
<g>
	<g>
		<g>
			<g>
				<path class="st1" d="M55.5,182.7c-4.1,0-7.5-3.4-7.5-7.5V37.4c0-4.1,3.4-7.5,7.5-7.5s7.5,3.4,7.5,7.5v137.7
					C63,179.3,59.6,182.7,55.5,182.7z"/>
			</g>
		</g>
	</g>
</g>
<g>
	<g>
		<g>
			<g>
				<path class="st1" d="M90.5,182.7c-4.1,0-7.5-3.4-7.5-7.5V37.4c0-4.1,3.4-7.5,7.5-7.5s7.5,3.4,7.5,7.5v137.7
					C98,179.3,94.7,182.7,90.5,182.7z"/>
			</g>
		</g>
	</g>
</g>
<g>
	<g>
		<g>
			<g>
				<path class="st1" d="M159.8,182.7c-4.1,0-7.5-3.4-7.5-7.5V37.4c0-4.1,3.4-7.5,7.5-7.5s7.5,3.4,7.5,7.5v137.7
					C167.3,179.3,163.9,182.7,159.8,182.7z"/>
			</g>
		</g>
	</g>
</g>
<g>
	<g>
		<g>
			<g>
				<path class="st1" d="M194.5,182.7c-4.1,0-7.5-3.4-7.5-7.5V37.4c0-4.1,3.4-7.5,7.5-7.5s7.5,3.4,7.5,7.5v137.7
					C202,179.3,198.7,182.7,194.5,182.7z"/>
			</g>
		</g>
	</g>
</g>
<g>
	<g>
		<g>
			<g>
				<path class="st2" d="M55.5,221.3c-5.6,0-10.2-4.6-10.2-10.2v-8c0-5.6,4.6-10.2,10.2-10.2c5.6,0,10.2,4.6,10.2,10.2v8
					C65.7,216.7,61.1,221.3,55.5,221.3z M55.5,199.7c-1.9,0-3.4,1.5-3.4,3.4v8c0,1.9,1.5,3.4,3.4,3.4c1.9,0,3.4-1.5,3.4-3.4v-8
					C58.9,201.2,57.4,199.7,55.5,199.7z"/>
			</g>
		</g>
	</g>
</g>
<g>
	<g>
		<g>
			<g>
				<path class="st2" d="M90.2,221.3c-1.9,0-3.4-1.5-3.4-3.4v-15.4l-3.6,2.3c-1.6,1-3.7,0.6-4.7-1c-1-1.6-0.6-3.7,1-4.7l8.8-5.7
					c1-0.7,2.4-0.7,3.5-0.1c1.1,0.6,1.8,1.7,1.8,3v21.6C93.7,219.8,92.1,221.3,90.2,221.3z"/>
			</g>
		</g>
	</g>
</g>
<g>
	<g>
		<g>
			<g>
				<path class="st2" d="M159.8,221.3c-5.6,0-10.2-4.6-10.2-10.2v-8c0-5.6,4.6-10.2,10.2-10.2c5.6,0,10.2,4.6,10.2,10.2v8
					C170,216.7,165.4,221.3,159.8,221.3z M159.8,199.7c-1.9,0-3.4,1.5-3.4,3.4v8c0,1.9,1.5,3.4,3.4,3.4c1.9,0,3.4-1.5,3.4-3.4v-8
					C163.2,201.2,161.6,199.7,159.8,199.7z"/>
			</g>
		</g>
	</g>
</g>
<g>
	<g>
		<g>
			<g>
				<path class="st2" d="M194.5,221.3c-1.9,0-3.4-1.5-3.4-3.4v-15.4l-3.6,2.3c-1.6,1-3.7,0.6-4.7-1c-1-1.6-0.6-3.7,1-4.7l8.8-5.7
					c1-0.7,2.4-0.7,3.5-0.1c1.1,0.6,1.8,1.7,1.8,3v21.6C197.9,219.8,196.4,221.3,194.5,221.3z"/>
			</g>
		</g>
	</g>
</g>
<g>
	<g>
		<g>
			<g>
				<path class="st2" d="M55.5,185.9c-5.9,0-10.7-4.8-10.7-10.7V36.1c0-5.9,4.8-10.7,10.7-10.7s10.7,4.8,10.7,10.7v139.1
					C66.2,181.1,61.4,185.9,55.5,185.9z M55.5,32.2c-2.2,0-3.9,1.7-3.9,3.9v139.1c0,2.2,1.7,3.9,3.9,3.9c2.1,0,3.9-1.7,3.9-3.9V36.1
					C59.4,33.9,57.6,32.2,55.5,32.2z"/>
			</g>
		</g>
	</g>
</g>
<g>
	<g>
		<g>
			<g>
				<path class="st2" d="M90.2,185.9c-5.9,0-10.7-4.8-10.7-10.7V36.1c0-5.9,4.8-10.7,10.7-10.7S101,30.2,101,36.1v139.1
					C101,181.1,96.2,185.9,90.2,185.9z M90.2,32.2c-2.1,0-3.9,1.7-3.9,3.9v139.1c0,2.2,1.7,3.9,3.9,3.9c2.2,0,3.9-1.7,3.9-3.9V36.1
					C94.1,33.9,92.4,32.2,90.2,32.2z"/>
			</g>
		</g>
	</g>
</g>
<g>
	<g>
		<g>
			<g>
				<path class="st2" d="M159.8,185.9c-5.9,0-10.7-4.8-10.7-10.7V36.1c0-5.9,4.8-10.7,10.7-10.7c5.9,0,10.7,4.8,10.7,10.7v139.1
					C170.5,181.1,165.7,185.9,159.8,185.9z M159.8,32.2c-2.2,0-3.9,1.7-3.9,3.9v139.1c0,2.2,1.7,3.9,3.9,3.9c2.1,0,3.9-1.7,3.9-3.9
					V36.1C163.7,33.9,161.9,32.2,159.8,32.2z"/>
			</g>
		</g>
	</g>
</g>
<g>
	<g>
		<g>
			<g>
				<path class="st2" d="M194.5,185.9c-5.9,0-10.7-4.8-10.7-10.7V36.1c0-5.9,4.8-10.7,10.7-10.7c5.9,0,10.7,4.8,10.7,10.7v36.5
					c0,1.9-1.5,3.4-3.4,3.4c-1.9,0-3.4-1.5-3.4-3.4V36.1c0-2.2-1.7-3.9-3.9-3.9c-2.1,0-3.9,1.7-3.9,3.9v139.1c0,2.2,1.7,3.9,3.9,3.9
					c2.2,0,3.9-1.7,3.9-3.9V88.1c0-1.9,1.5-3.4,3.4-3.4c1.9,0,3.4,1.5,3.4,3.4v87.1C205.2,181.1,200.4,185.9,194.5,185.9z"/>
			</g>
		</g>
	</g>
</g>
<g>
	<g>
		<g>
			<g>
				<path class="st2" d="M20.7,224.7c-6.7,0-12.1-5.4-12.1-12.1V74.9c0-1.9,1.5-3.4,3.4-3.4s3.4,1.5,3.4,3.4v137.6
					c0,2.9,2.4,5.3,5.3,5.3s5.3-2.4,5.3-5.3v-175c0-2.9-2.4-5.3-5.3-5.3s-5.3,2.4-5.3,5.3v22.1c0,1.9-1.5,3.4-3.4,3.4
					s-3.4-1.5-3.4-3.4V37.5c0-6.7,5.4-12.1,12.1-12.1s12.1,5.4,12.1,12.1v175C32.9,219.2,27.4,224.7,20.7,224.7z"/>
			</g>
		</g>
	</g>
</g>
<g>
	<g>
		<g>
			<g>
				<path class="st2" d="M125,224.7c-6.7,0-12.1-5.4-12.1-12.1v-175c0-6.7,5.4-12.1,12.1-12.1c6.7,0,12.1,5.4,12.1,12.1v102.7
					c0,1.9-1.5,3.4-3.4,3.4s-3.4-1.5-3.4-3.4V37.5c0-2.9-2.4-5.3-5.3-5.3s-5.3,2.4-5.3,5.3v175c0,2.9,2.4,5.3,5.3,5.3
					s5.3-2.4,5.3-5.3v-57.4c0-1.9,1.5-3.4,3.4-3.4s3.4,1.5,3.4,3.4v57.4C137.1,219.2,131.7,224.7,125,224.7z"/>
			</g>
		</g>
	</g>
</g>
<g>
	<g>
		<g>
			<g>
				<path class="st2" d="M229.3,224.7c-6.7,0-12.1-5.4-12.1-12.1v-175c0-6.7,5.4-12.1,12.1-12.1c6.7,0,12.1,5.4,12.1,12.1v175
					C241.4,219.2,236,224.7,229.3,224.7z M229.3,32.2c-2.9,0-5.3,2.4-5.3,5.3v175c0,2.9,2.4,5.3,5.3,5.3s5.3-2.4,5.3-5.3v-175
					C234.6,34.6,232.2,32.2,229.3,32.2z"/>
			</g>
		</g>
	</g>
</g>
</svg>
