<?xml version="1.0" encoding="utf-8"?>
<!-- Generator: Adobe Illustrator 21.0.0, SVG Export Plug-In . SVG Version: 6.00 Build 0)  -->
<svg version="1.1" id="Layer_1" xmlns="http://www.w3.org/2000/svg" xmlns:xlink="http://www.w3.org/1999/xlink" x="0px" y="0px"
	 viewBox="0 0 250 250" style="enable-background:new 0 0 250 250;" xml:space="preserve">
<style type="text/css">
	.st0{fill:#B3B3B3;}
	.st1{fill:#EEC73A;}
	.st2{fill:#00417A;}
	.st3{fill:#CCCCCC;}
	.st4{fill-rule:evenodd;clip-rule:evenodd;fill:#EEC73A;}
	.st5{fill:#FFFFFF;}
	.st6{fill:#1D3567;}
	.st7{fill:none;stroke:#00417A;stroke-width:6.5;stroke-linecap:round;stroke-miterlimit:10;}
	.st8{fill-rule:evenodd;clip-rule:evenodd;fill:#00417A;}
	.st9{fill:none;stroke:#B3B3B3;stroke-width:6;stroke-miterlimit:10;}
</style>
<g>
	<g>
		<g>
			<g>
				<path class="st0" d="M62.2,136.7c3.5,4.5,6.9,8.9,10.5,13.1c3.6,4.2,7.3,8.3,11.1,12.2c1.9,1.9,3.9,3.9,5.9,5.8
					c1.9,1.8,3.9,3.6,6,5.2c4.2,3.3,8.8,6.2,13.5,8.9c9.5,5.4,19.5,9.8,29.9,13.6c5.2,1.8,10.5,3.5,15.8,4.9
					c2.7,0.7,5.4,1.3,8.1,1.7c1.4,0.2,2.7,0.3,4.1,0.4c1.4,0.1,2.8,0,4.2-0.2c-2.6,1.3-5.5,1.7-8.4,1.9c-2.9,0.2-5.8,0.1-8.6-0.1
					c-5.7-0.5-11.4-1.4-16.9-2.8c-11.1-2.7-21.9-6.8-32.1-12.3c-5.1-2.8-10-6-14.5-9.7c-2.3-1.9-4.5-3.9-6.5-6
					c-2-2.1-3.9-4.3-5.7-6.5c-3.6-4.5-6.9-9.2-9.6-14.3C66.2,147.4,63.8,142.2,62.2,136.7z"/>
			</g>
		</g>
	</g>
</g>
<g>
	<g>
		<g>
			<g>
				<g>
					<path class="st1" d="M83.4,47.5c5.7,2.6,14.1,7.3,21.4,14.7c7.4,7.4,15.4,20.4,18,26.1c1.8,3.9,1,8.5-2.1,11.6l-3.6,3.6
						c-4-7.6-13.6-22.2-22.5-31.1c-8.9-8.9-22.3-18.2-30-22.2l3.6-3.6C71.3,43.6,79.5,45.7,83.4,47.5L83.4,47.5z"/>
				</g>
			</g>
		</g>
	</g>
	<g>
		<g>
			<g>
				<g>
					<g>
						<path class="st1" d="M164.3,127.9c6.4,3,15.7,6.4,24,14.7c8.3,8.3,15.6,20.6,18.6,27c2,4.4-1.9,11.3-5.3,14.8l-4.3,7.2
							c-4.6-8.6-11.4-22.9-21.4-33c-10.1-10.1-21.2-17.1-29.8-21.7l4-4c3.4-3.4,7.2-6.8,11.6-4.8L164.3,127.9z"/>
					</g>
				</g>
			</g>
		</g>
		<g>
			<g>
				<g>
					<g>
						<path class="st1" d="M123.1,182.1c-0.4,0-0.9-0.1-1.3-0.3c-20.7-9.3-40.5-32.5-50.2-50.2c-0.9-1.6-0.3-3.5,1.3-4.4
							c1.6-0.9,3.5-0.3,4.4,1.3c9.2,16.8,27.8,38.7,47.1,47.4c1.6,0.7,2.4,2.7,1.6,4.3C125.6,181.4,124.4,182.1,123.1,182.1z"/>
					</g>
				</g>
			</g>
		</g>
		<g>
			<g>
				<g>
					<g>
						<g>
							<path class="st2" d="M158.4,210c-4.2,0-8.8-0.3-13.8-1.1c-15.4-2.4-38.7-10.2-62.1-33.6C72,164.8,63.3,153,56.8,140.4
								c-0.8-1.6-0.2-3.6,1.4-4.4c1.6-0.8,3.6-0.2,4.4,1.4c6.2,12,14.5,23.2,24.5,33.3c22.1,22.1,44,29.5,58.5,31.7
								c29.1,4.5,43.3-7,46.9-10.7l7.8-7.8c3.8-3.8,4.9-9.7,2.6-14.6c-2.7-5.9-7.6-14.5-15.2-22.2c-7.6-7.6-16.3-12.5-22.2-15.2
								c-4.9-2.3-10.7-1.2-14.6,2.6l-7.8,7.8c-2.6,2.6-4.8,5.6-6.5,9l-1.4,2.9l-2.9-1.4c-4.4-2.1-12.8-6.7-19.8-13.8
								c-7.1-7.1-11.8-15.8-14-20.3l-1.4-2.8l2.8-1.5c8.2-4.3,16.4-14,16.5-14.1l0.2-0.2c3.8-3.8,4.9-9.7,2.6-14.6
								c-2.7-5.9-7.6-14.6-15.2-22.2C96.4,55.8,87.8,51,81.9,48.2C77,46,71.1,47,67.3,50.8l-7.8,7.8c-8.4,8.1-10,20.4-10,20.7l0,0
								c0,0.1-0.6,5.3,0.1,13.7c0.7,7.8,2.6,20,8.1,33.7c0.7,1.7-0.1,3.6-1.8,4.2c-1.7,0.7-3.6-0.1-4.2-1.8
								c-5.8-14.5-7.9-27.3-8.6-35.6c-0.8-9.1-0.1-14.8-0.1-15l0,0c0.3-2.4,2.4-15.3,11.9-24.6l7.8-7.8c5.7-5.7,14.5-7.3,21.9-3.9
								c6.4,3,15.7,8.2,24.1,16.5c8.3,8.3,13.6,17.7,16.5,24.1c3.4,7.3,1.8,16-3.8,21.8c-0.9,1-7.8,8.9-15.6,13.9
								c2.3,4.4,6.2,10.6,11.4,15.9c5.1,5.1,11.1,8.8,15.3,11.1c1.7-2.8,3.8-5.4,6.1-7.8l7.8-7.8c5.7-5.7,14.5-7.3,21.9-3.9
								c6.4,3,15.7,8.2,24.1,16.5c8.3,8.3,13.6,17.7,16.5,24.1c3.4,7.3,1.8,16.1-3.9,21.9l-7.8,7.8C193.6,199.9,181.5,210,158.4,210
								z"/>
						</g>
					</g>
				</g>
			</g>
			<g>
				<g>
					<g>
						<g>
							<path class="st2" d="M101.9,120.8c-0.4,0-0.8-0.1-1.2-0.2c-26.6-10.2-47-29.8-56.7-40.5c-1.2-1.3-1.1-3.4,0.2-4.6
								c1.3-1.2,3.4-1.1,4.6,0.2c9.3,10.3,28.8,29.1,54.2,38.8c1.7,0.6,2.5,2.5,1.9,4.2C104.4,120,103.2,120.8,101.9,120.8z"/>
						</g>
					</g>
				</g>
			</g>
			<g>
				<g>
					<g>
						<g>
							<path class="st2" d="M116.1,109c-1.3,0-2.5-0.7-3-2c-4.9-11.6-16.5-24-26.1-33.6C78.1,64.5,68.1,58.5,61.2,55
								c-1.6-0.8-2.2-2.8-1.4-4.4c0.8-1.6,2.8-2.2,4.4-1.4c7.3,3.7,17.9,10.1,27.4,19.6c10.6,10.6,22.1,23.1,27.5,35.6
								c0.7,1.7-0.1,3.6-1.7,4.3C116.9,108.9,116.5,109,116.1,109z"/>
						</g>
					</g>
				</g>
			</g>
			<g>
				<g>
					<g>
						<g>
							<path class="st2" d="M179.2,206.7c-0.6,0-1.3-0.2-1.9-0.6c-0.5-0.3-1.2-0.8-2.1-1.3c-8.4-5.3-34.1-21.4-44.1-53.8
								c-0.5-1.7,0.4-3.5,2.1-4.1c1.7-0.5,3.5,0.4,4.1,2.1c9.3,30.1,33.4,45.2,41.3,50.2c1,0.6,1.8,1.1,2.4,1.5
								c1.5,1,1.8,3.1,0.8,4.5C181.2,206.2,180.2,206.7,179.2,206.7z"/>
						</g>
					</g>
				</g>
			</g>
			<g>
				<g>
					<g>
						<g>
							<path class="st2" d="M186.9,176.4c-1,0-2-0.5-2.6-1.4c-3.3-4.6-6.9-9-10.6-12.9c-10.6-11-22.6-18.5-30.8-22.8
								c-1.6-0.8-2.2-2.8-1.3-4.4c0.8-1.6,2.8-2.2,4.4-1.3c8.6,4.6,21.2,12.4,32.4,24c4,4.1,7.8,8.7,11.3,13.6
								c1,1.5,0.7,3.5-0.8,4.5C188.2,176.2,187.6,176.4,186.9,176.4z"/>
						</g>
					</g>
				</g>
			</g>
		</g>
		<g>
			<g>
				<g>
					<g>
						<path class="st2" d="M197.3,194.9c-1.2,0-2.4-0.7-3-1.9c-0.6-1.3-1-2.3-1.4-3.1c-1.1-2.6-1.5-3.3-3.6-6.7
							c-1-1.5-0.5-3.5,1-4.5c1.5-1,3.5-0.5,4.5,1c2.5,3.8,2.9,4.9,4.1,7.6c0.3,0.8,0.8,1.8,1.3,3c0.7,1.6,0,3.6-1.6,4.3
							C198.2,194.8,197.8,194.9,197.3,194.9z"/>
					</g>
				</g>
			</g>
		</g>
	</g>
</g>
</svg>
