<?xml version="1.0" encoding="utf-8"?>
<!-- Generator: Adobe Illustrator 21.0.0, SVG Export Plug-In . SVG Version: 6.00 Build 0)  -->
<svg version="1.1" id="Layer_1" xmlns="http://www.w3.org/2000/svg" xmlns:xlink="http://www.w3.org/1999/xlink" x="0px" y="0px"
	 viewBox="0 0 250 250" style="enable-background:new 0 0 250 250;" xml:space="preserve">
<style type="text/css">
	.st0{fill:#B3B3B3;}
	.st1{fill:#EEC73A;}
	.st2{fill:#00417A;}
	.st3{fill:#CCCCCC;}
	.st4{fill-rule:evenodd;clip-rule:evenodd;fill:#EEC73A;}
	.st5{fill:#FFFFFF;}
	.st6{fill:#1D3567;}
	.st7{fill:none;stroke:#00417A;stroke-width:6.5;stroke-linecap:round;stroke-miterlimit:10;}
	.st8{fill-rule:evenodd;clip-rule:evenodd;fill:#00417A;}
	.st9{fill:none;stroke:#B3B3B3;stroke-width:6;stroke-miterlimit:10;}
</style>
<g>
	<g>
		<g>
			<g>
				<path class="st0" d="M69.7,8.1c16.9-1.9,33.9-2.9,50.8-3.7l12.7-0.5l6.4-0.2l3.2-0.1l1.6,0c0.7,0,1.3,0,2,0.1
					c5.2,0.4,10.3,2.6,14.2,6.2c3.9,3.6,6.5,8.5,7.3,13.7c0.1,0.7,0.2,1.3,0.2,2c0,0.3,0,0.7,0,1l0,0.9l0,3.2l0,6.4l0,12.7l0.1,25.4
					l0,50.8l-0.1,50.8l-0.1,25.4l0,12.7l0,6.4l0,3.2l0,0.9c0,0.3,0,0.7,0,1c0,0.7-0.1,1.3-0.2,2c-0.8,5.2-3.4,10.2-7.3,13.7
					c-3.8,3.6-8.9,5.8-14.2,6.2c-0.7,0.1-1.3,0.1-2,0.1l-1.6,0l-3.2-0.1l-6.4-0.2l-12.7-0.5c-16.9-0.8-33.9-1.8-50.8-3.7
					c16.9-1.9,33.9-2.9,50.8-3.7l12.7-0.5l12.3-0.4c3.2-0.3,6.3-1.7,8.6-3.9c2.3-2.2,3.9-5.2,4.3-8.3c0-0.4,0.1-0.8,0.1-1.2
					c0-0.2,0-0.4,0-0.6l0-0.7l0-3.2l0-6.4l0-12.7l-0.1-25.4l-0.1-50.8l0-50.8l0.1-25.4l0-12.7l0-6.4l0-3.2l0-0.7c0-0.2,0-0.4,0-0.6
					c0-0.4-0.1-0.8-0.1-1.2c-0.4-3.1-1.9-6.1-4.3-8.3c-2.3-2.2-5.4-3.6-8.6-3.9c-0.4,0-0.8-0.1-1.2-0.1l-1.6,0l-3.2-0.1l-6.4-0.2
					l-12.7-0.5C103.6,11.1,86.6,10,69.7,8.1z"/>
			</g>
		</g>
	</g>
</g>
<g>
	<g>
		<g>
			<g>
				<g>
					<g>
						<path class="st2" d="M148.6,248.3H25.8c-11.9,0-21.6-9.7-21.6-21.6V22.4c0-11.9,9.7-21.6,21.6-21.6h122.8
							c11.9,0,21.6,9.7,21.6,21.6v204.3C170.2,238.6,160.5,248.3,148.6,248.3z M25.8,7.2c-8.4,0-15.1,6.8-15.1,15.2v204.3
							c0,8.4,6.8,15.1,15.1,15.1h122.8c8.4,0,15.1-6.8,15.1-15.1V22.4c0-8.4-6.8-15.2-15.1-15.2H25.8z"/>
					</g>
				</g>
			</g>
		</g>
	</g>
</g>
<g>
	<g>
		<g>
			<g>
				<g>
					<path class="st1" d="M121.7,238.6c-0.6,1.7-2.1,2.1-2.7,2.2c-0.6,0.1-2.1,0.2-3.2-1.2l-9-11c-0.6-0.8-1.7-1.2-2.7-1l-14,2.3
						c-1.8,0.3-2.8-0.8-3.2-1.2c-0.4-0.5-1.2-1.7-0.5-3.4l17.4-45.6l8.1-0.9l4.4,11.1c1.4,3.7,4.4,6.5,8.2,7.5
						c8.2,2.2,14.7-4.6,14.7-4.6L121.7,238.6z"/>
				</g>
			</g>
		</g>
	</g>
	<g>
		<g>
			<g>
				<g>
					<path class="st1" d="M246.7,188.6c-0.1,0.6-0.6,2.1-2.4,2.7l-14,4.7c-1,0.3-1.8,1.2-2,2.2l-2.9,14.5c-0.4,1.8-1.8,2.5-2.4,2.7
						c-0.6,0.2-2.1,0.5-3.5-0.7l-38.2-33.9c0,0,8.9,3.1,15.8-2.8c3.1-2.7,4.4-6.8,4-10.9l-1.3-12.4l7.9-3.1l18,16l0,0l20,17.7
						C246.9,186.4,246.8,188,246.7,188.6z"/>
				</g>
			</g>
		</g>
	</g>
	<g>
		<g>
			<g>
				<g>
					<path class="st5" d="M167.1,190.1c-0.9,2-2.6,3.4-4.7,3.9c-2.1,0.5-4.3,0-5.9-1.3l-11-8.7c-0.7-0.6-2.1-1.1-3.4-0.1l-11.3,8.3
						c-1.7,1.3-3.9,1.7-6,1.1c-2.1-0.6-3.7-2.1-4.5-4.1l-5.1-13.1c-0.5-1.2-1.7-1.9-2.9-1.8l-14,1.5c-2.1,0.2-4.2-0.5-5.7-2.1
						c-1.5-1.6-2.2-3.7-1.8-5.8l2.1-13.9c0.2-1.3-0.5-2.5-1.6-3l-12.8-5.7c-2-0.9-3.4-2.6-3.9-4.7c-0.5-2.1,0-4.3,1.3-5.9l8.7-11
						c0.8-1,0.8-2.4,0.1-3.4L76.2,109c-1.3-1.7-1.7-3.9-1-6c0.6-2.1,2.1-3.7,4.1-4.5l13.1-5.1c1.2-0.5,1.9-1.7,1.8-2.9l-1.5-14
						c-0.2-2.1,0.5-4.2,2.1-5.7c1.6-1.5,3.7-2.2,5.8-1.8l13.9,2.1c1.3,0.2,2.5-0.5,3-1.6l5.7-12.8c0.9-2,2.6-3.4,4.7-3.9
						c2.1-0.5,4.3,0,5.9,1.3l11,8.7c1,0.8,2.4,0.8,3.4,0.1l11.3-8.3c1.7-1.3,3.9-1.7,6-1c2.1,0.6,3.7,2.1,4.5,4.1l5.1,13.1
						c0.5,1.2,1.7,1.9,2.9,1.8l14-1.5c2.1-0.2,4.2,0.5,5.7,2.1c1.5,1.6,2.2,3.7,1.8,5.8l-2.1,13.9c-0.2,1.3,0.5,2.5,1.6,3l12.8,5.7
						c2,0.9,3.4,2.6,3.9,4.7c0.5,2.1,0,4.3-1.3,5.9l-8.7,11c-0.8,1-0.8,2.4-0.1,3.4l8.3,11.3c1.3,1.7,1.7,3.9,1,6
						c-0.6,2.1-2.1,3.7-4.1,4.5l-13.1,5.1c-1.2,0.5-1.9,1.7-1.8,2.9l1.5,14c0.2,2.1-0.5,4.2-2.1,5.7c-1.6,1.5-3.7,2.2-5.8,1.8
						l-13.9-2.1c-1.3-0.2-2.5,0.5-3,1.6L167.1,190.1z"/>
				</g>
			</g>
		</g>
	</g>
	<g>
		<g>
			<g>
				<g>
					
						<ellipse transform="matrix(0.9712 -0.2384 0.2384 0.9712 -25.6744 38.3062)" class="st5" cx="145.5" cy="125.3" rx="45.3" ry="45.3"/>
				</g>
			</g>
		</g>
	</g>
	<g>
		<g>
			<g>
				<g>
					<g>
						<path class="st2" d="M142.8,154.9c-0.9,0-1.9-0.2-2.8-0.6l-0.5-0.2c0,0-0.1,0-0.1-0.1l-20.9-10c-1.6-0.7-2.7-2.1-3.3-3.7
							c-0.6-1.6-0.5-3.4,0.3-4.9c0.7-1.6,2.1-2.7,3.7-3.3c1.6-0.6,3.4-0.5,4.9,0.3l15.7,7.5l5.6-11.6c0.3-0.6,1-0.8,1.5-0.5
							c0.6,0.3,0.8,1,0.5,1.5l-6.1,12.6c-0.1,0.3-0.4,0.5-0.7,0.6c-0.3,0.1-0.6,0.1-0.9,0l-16.7-8c-1-0.5-2.1-0.5-3.2-0.2
							c-1,0.4-1.9,1.1-2.4,2.1c-0.5,1-0.5,2.1-0.2,3.2c0.4,1,1.1,1.9,2.1,2.4l21,10.1c0,0,0.1,0,0.1,0.1l0.4,0.2
							c1,0.5,2.1,0.5,3.1,0.2c1.1-0.4,1.9-1.1,2.4-2.1l0.2-0.4c0,0,0-0.1,0-0.1l23.1-48c0.5-1,0.5-2.1,0.2-3.2
							c-0.4-1-1.1-1.9-2.1-2.4c-1-0.5-2.1-0.5-3.2-0.2c-1,0.4-1.9,1.1-2.4,2.1l-2.8,5.9c-0.3,0.6-1,0.8-1.5,0.5
							c-0.6-0.3-0.8-1-0.5-1.5l2.8-5.9c0.7-1.6,2.1-2.7,3.7-3.3c1.6-0.6,3.4-0.5,4.9,0.3c1.5,0.7,2.7,2,3.3,3.7s0.5,3.4-0.3,4.9
							l-23.1,48c0,0,0,0.1,0,0.1l-0.2,0.5c-0.8,1.6-2.1,2.7-3.7,3.3C144.2,154.8,143.5,154.9,142.8,154.9z"/>
					</g>
				</g>
			</g>
		</g>
		<g>
			<g>
				<g>
					<g>
						<path class="st2" d="M148.6,125.3c-0.2,0-0.3,0-0.5-0.1c-0.6-0.3-0.8-1-0.5-1.5l7.5-15.6c0.3-0.6,1-0.8,1.5-0.5
							c0.6,0.3,0.8,1,0.5,1.5l-7.5,15.6C149.5,125.1,149.1,125.3,148.6,125.3z"/>
					</g>
				</g>
			</g>
		</g>
		<g>
			<g>
				<g>
					<g>
						<path class="st1" d="M167.6,97c-0.8-0.4-1.7-0.4-2.5-0.1c-0.8,0.3-1.5,0.9-1.9,1.7l-21.9,45.6l-18.5-8.9
							c-0.8-0.4-1.7-0.4-2.5-0.1c-0.8,0.3-1.5,0.9-1.9,1.7c-0.8,1.6-0.1,3.6,1.5,4.4l21.4,10.3c0,0,0.1,0.1,0.1,0.1
							c0.8,0.4,1.7,0.4,2.5,0.1c0.8-0.3,1.5-0.9,1.9-1.7l0.1-0.2l0,0l23.2-48.4c0.4-0.8,0.4-1.7,0.1-2.5C169,98,168.4,97.3,167.6,97
							z"/>
					</g>
				</g>
			</g>
		</g>
	</g>
	<g>
		<g>
			<g>
				<g>
					<path class="st2" d="M192.4,112.8c-6.4-26-32.7-42-58.7-35.6c-26,6.4-42,32.7-35.6,58.7c0.4,1.5,1.9,2.4,3.3,2
						c1.5-0.4,2.4-1.9,2-3.3c-5.7-23.1,8.5-46.4,31.5-52.1c23-5.7,46.4,8.5,52.1,31.5c5.7,23-8.5,46.4-31.5,52.1
						c-19.2,4.7-39-4.2-48.3-21.6c-0.7-1.3-2.4-1.9-3.7-1.1c-1.3,0.7-1.9,2.4-1.1,3.7c10.4,19.7,32.8,29.7,54.4,24.4
						C182.9,165.2,198.8,138.8,192.4,112.8L192.4,112.8z M192.4,112.8"/>
				</g>
			</g>
		</g>
	</g>
	<g>
		<g>
			<g>
				<g>
					<path class="st0" d="M173.3,179.5 M97.4,178.7 M103.3,178.3 M136.5,189.8 M97.4,178.7l5.9-0.5l7.6-0.9l4,10
						c1.3,3.3,4.1,5.8,7.7,6.7c7.7,1.9,13.9-4.3,13.9-4.3s3.5-3.7,6.2-3.2l0.7,0.2l7.5,5.7c2.9,2.2,6.6,2.9,10.2,2
						c3.6-0.9,6.6-3.3,8.1-6.5l4-8.5c0,0-0.1-1.9,6.9-0.7l0.7,0.1c0,0,8.1,2.6,14.3-2.6c2.8-2.4,4.1-6,3.7-9.5l-1.1-10.7l10.5-4.1
						c3.5-1.3,6.1-4.1,7.2-7.5c1.1-3.4,0.5-7-1.7-9.9l-6.5-8.7l7.1-8.6c2.3-2.8,3.2-6.4,2.4-9.9c-0.8-3.5-3.3-6.2-6.7-7.7l-10.3-4.3
						l1.8-10.7c0.6-3.5-0.5-7-3.1-9.6c-2.5-2.5-6.1-3.8-9.8-3.3l-11.2,1.3l-4-10c-1.3-3.3-4.1-5.8-7.7-6.7c-3.6-1-7.3-0.3-10.4,1.8
						l-9.2,6.5l-8.8-6.6c-2.9-2.2-6.6-2.9-10.2-2c-3.6,0.9-6.6,3.3-8.1,6.5l-4.7,9.9l-11.1-1.5c-3.7-0.5-7.3,0.7-10,3.2
						c-2.7,2.5-4.1,6-3.7,9.5l1.1,10.7l-10.5,4.1c-3.5,1.3-6.1,4.1-7.2,7.5c-1.1,3.4-0.5,7,1.7,9.9l6.5,8.7l-7.1,8.6
						c-2.3,2.8-3.2,6.4-2.4,9.9c0.8,3.5,3.3,6.2,6.7,7.7l10.3,4.3l-1.8,10.7c-0.6,3.5,0.5,7,3.1,9.6
						C91.9,177.4,94.6,178.5,97.4,178.7 M164.4,186c-0.8,1.8-2.5,3.1-4.5,3.6c-2,0.5-4,0.1-5.6-1.1l-10.3-7.9c-0.7-0.5-2-1-3.2,0
						l-10.8,7.6c-1.7,1.2-3.7,1.5-5.7,1c-2-0.5-3.5-1.9-4.2-3.7l-4.7-11.8c-0.4-1.1-1.6-1.7-2.8-1.6l-13.3,1.5c-2,0.2-4-0.4-5.4-1.8
						c-1.4-1.4-2-3.3-1.7-5.3l2.1-12.7c0.2-1.1-0.4-2.3-1.5-2.7l-12.1-5.1c-1.9-0.8-3.2-2.3-3.7-4.2c-0.5-1.9,0-3.9,1.3-5.4
						l8.4-10.1c0.8-0.9,0.8-2.2,0.1-3.1L79,113c-1.2-1.6-1.5-3.6-0.9-5.5c0.6-1.9,2-3.4,3.9-4.1l12.4-4.8c1.1-0.4,1.8-1.5,1.7-2.7
						l-1.3-12.7c-0.2-1.9,0.5-3.9,2-5.2c1.5-1.4,3.5-2,5.5-1.7l13.1,1.8c1.2,0.2,2.4-0.5,2.9-1.5l5.5-11.7c0.8-1.8,2.5-3.1,4.5-3.6
						c2-0.5,4-0.1,5.6,1.1l10.3,7.9c0.9,0.7,2.3,0.7,3.2,0l10.8-7.6c1.7-1.2,3.7-1.5,5.7-1c2,0.5,3.5,1.9,4.2,3.7l4.7,11.8
						c0.4,1.1,1.6,1.7,2.8,1.6l13.3-1.5c2-0.2,4,0.4,5.4,1.8c1.4,1.4,2,3.3,1.7,5.3l-2.1,12.7c-0.2,1.1,0.4,2.3,1.5,2.7l12.1,5.1
						c1.9,0.8,3.2,2.3,3.7,4.2c0.5,1.9,0,3.9-1.3,5.4l-8.4,10.1c-0.8,0.9-0.8,2.2-0.1,3.1l7.7,10.2c1.2,1.6,1.5,3.6,0.9,5.5
						c-0.6,1.9-2,3.4-3.9,4.1l-12.4,4.8c-1.1,0.4-1.8,1.5-1.7,2.7l1.3,12.7c0.2,1.9-0.5,3.9-2,5.2c-1.5,1.4-3.5,2-5.5,1.7l-13.1-1.8
						c-1.2-0.2-2.4,0.5-2.9,1.5L164.4,186z"/>
				</g>
			</g>
		</g>
	</g>
	<g>
		<g>
			<g>
				<g>
					<path class="st2" d="M247,182.3l-27.3-24.2c-1.1-1-2.9-0.9-3.9,0.2c-1,1.1-0.9,2.9,0.2,3.9l27.3,24.2c1.3,1.1,1.2,2.6,1,3.1
						c-0.1,0.6-0.6,1.9-2.2,2.5l-13.1,4.3c-0.9,0.3-1.6,1.1-1.8,2.1l-2.7,13.5c-0.3,1.7-1.6,2.3-2.2,2.5c-0.5,0.2-2,0.5-3.2-0.7
						l-35.6-31.6c0,0,8.3,2.9,14.7-2.6c2.9-2.5,4.1-6.3,3.7-10.1l-1.2-11.5l10.8-4.2c3.6-1.4,6.2-4.3,7.3-8
						c1.1-3.7,0.4-7.5-1.9-10.6l-6.8-9.4l7.2-9.1c2.4-3,3.2-6.8,2.3-10.5c-0.9-3.7-3.4-6.7-6.9-8.3L202,93.2l1.7-11.4
						c0.6-3.8-0.6-7.5-3.3-10.3c-2.6-2.8-6.3-4.1-10.1-3.7L178.8,69l-4.2-10.8c-1.4-3.6-4.3-6.2-8-7.3c-3.7-1.1-7.5-0.4-10.6,1.9
						l-9.4,6.8l-9.1-7.2c-3-2.4-6.8-3.2-10.5-2.3c-3.7,0.9-6.7,3.4-8.3,6.9l-4.7,10.6l-11.4-1.7c-3.8-0.6-7.5,0.6-10.3,3.3
						c-2.8,2.6-4.1,6.3-3.7,10.1l1.2,11.5l-10.8,4.2c-3.6,1.4-6.2,4.3-7.3,8c-1.1,3.7-0.4,7.5,1.9,10.6l6.8,9.4l-7.2,9.1
						c-2.4,3-3.2,6.8-2.3,10.5c0.9,3.7,3.4,6.7,6.9,8.3l10.6,4.7l-1.7,11.4c-0.6,3.8,0.6,7.5,3.3,10.3c2.1,2.2,4.8,3.5,7.8,3.7
						l-15.9,41.8c-1.1,3-0.6,6.2,1.4,8.7c2,2.5,5.1,3.6,8.2,3.1l12-2l7.7,9.5c2,2.5,5.4,3.9,9,3c2.8-0.7,5.1-2.7,6.1-5.4l18.9-49.6
						l7.7,6.2c3,2.4,6.8,3.2,10.5,2.3c3.7-0.9,6.7-3.4,8.3-6.9l4-9.1l39.7,35.2c2.2,1.9,5.1,2.7,7.9,2c4.1-1,5.9-3.7,6.6-6.8
						l2.4-11.9l11.6-3.8c3-1,5.2-3.5,5.9-6.6C250.5,187.6,249.4,184.4,247,182.3L247,182.3z M121.2,237.8c-0.6,1.6-2,2-2.6,2.1
						c-0.6,0.1-2,0.2-3.1-1.2l-8.7-10.7c-0.6-0.8-1.6-1.1-2.6-1l-13.6,2.2c-1.7,0.3-2.7-0.7-3.1-1.2c-0.4-0.4-1.1-1.7-0.5-3.3
						l16.8-44.2l7.8-0.8l4.2,10.8c1.4,3.6,4.3,6.3,8,7.3c7.9,2.1,14.2-4.5,14.2-4.5L121.2,237.8z M166.8,189.5
						c-0.9,1.9-2.5,3.3-4.5,3.8c-2,0.5-4.1,0-5.8-1.3l-10.7-8.5c-0.7-0.5-2.1-1.1-3.3-0.1l-11,8.1c-1.7,1.2-3.8,1.6-5.8,1
						c-2-0.6-3.6-2-4.4-4l-5-12.7c-0.5-1.2-1.6-1.9-2.9-1.7l-13.6,1.5c-2.1,0.2-4.1-0.5-5.6-2c-1.5-1.5-2.1-3.6-1.8-5.7l2-13.5
						c0.2-1.2-0.5-2.4-1.6-2.9l-12.5-5.6c-1.9-0.9-3.3-2.5-3.8-4.5c-0.5-2,0-4.1,1.3-5.8l8.5-10.7c0.8-1,0.8-2.3,0.1-3.3l-8.1-11
						c-1.2-1.7-1.6-3.8-1-5.8c0.6-2,2-3.6,4-4.4l12.7-5c1.2-0.5,1.9-1.6,1.7-2.9l-1.5-13.6c-0.2-2.1,0.5-4.1,2-5.6
						c1.5-1.5,3.6-2.1,5.7-1.8l13.5,2c1.2,0.2,2.4-0.5,2.9-1.6l5.5-12.5c0.9-1.9,2.5-3.3,4.5-3.8c2-0.5,4.1,0,5.8,1.3l10.7,8.5
						c1,0.8,2.3,0.8,3.3,0.1l11-8.1c1.7-1.2,3.8-1.6,5.8-1c2,0.6,3.6,2,4.4,4l5,12.7c0.5,1.2,1.6,1.9,2.9,1.7l13.6-1.5
						c2.1-0.2,4.1,0.5,5.6,2c1.5,1.5,2.1,3.6,1.8,5.7l-2,13.5c-0.2,1.2,0.5,2.4,1.6,2.9l12.5,5.6c1.9,0.9,3.3,2.5,3.8,4.5
						c0.5,2,0,4.1-1.3,5.8l-8.5,10.7c-0.8,1-0.8,2.3-0.1,3.3l8.1,11c1.2,1.7,1.6,3.8,1,5.8c-0.6,2-2,3.6-4,4.4l-12.7,5
						c-1.2,0.5-1.9,1.6-1.7,2.9l1.5,13.6c0.2,2.1-0.5,4.1-2,5.6c-1.5,1.5-3.6,2.1-5.7,1.8l-13.5-2c-1.2-0.2-2.4,0.5-2.9,1.6
						L166.8,189.5z M166.8,189.5"/>
				</g>
			</g>
		</g>
	</g>
</g>
<g>
	<g>
		<g>
			<g>
				<g>
					<g>
						<g>
							<g>
								<g>
									<path class="st4" d="M32.2,52.2c-2,0-3.6-1.6-3.6-3.6s1.6-3.6,3.6-3.6H112c2,0,3.6,1.6,3.6,3.6s-1.6,3.6-3.6,3.6H32.2z"/>
								</g>
							</g>
						</g>
					</g>
					<g>
						<g>
							<g>
								<g>
									<path class="st1" d="M112,45.5c1.7,0,3.1,1.4,3.1,3.1c0,1.7-1.4,3.1-3.1,3.1H32.2c-1.7,0-3.1-1.4-3.1-3.1
										c0-1.7,1.4-3.1,3.1-3.1H112 M112,44.5H32.2c-2.3,0-4.1,1.8-4.1,4.1s1.8,4.1,4.1,4.1H112c2.3,0,4.1-1.8,4.1-4.1
										S114.2,44.5,112,44.5L112,44.5z"/>
								</g>
							</g>
						</g>
					</g>
				</g>
			</g>
		</g>
	</g>
</g>
<g>
	<g>
		<g>
			<g>
				<g>
					<g>
						<g>
							<g>
								<path class="st4" d="M32.2,225.4c-2,0-3.6-1.6-3.6-3.6c0-2,1.6-3.6,3.6-3.6h32.9c2,0,3.6,1.6,3.6,3.6c0,2-1.6,3.6-3.6,3.6
									H32.2z"/>
							</g>
						</g>
					</g>
				</g>
				<g>
					<g>
						<g>
							<g>
								<path class="st1" d="M65.1,218.7c1.7,0,3.1,1.4,3.1,3.1c0,1.7-1.4,3.1-3.1,3.1H32.2c-1.7,0-3.1-1.4-3.1-3.1
									c0-1.7,1.4-3.1,3.1-3.1H65.1 M65.1,217.7H32.2c-2.3,0-4.1,1.8-4.1,4.1c0,2.3,1.8,4.1,4.1,4.1h32.9c2.3,0,4.1-1.8,4.1-4.1
									C69.2,219.6,67.4,217.7,65.1,217.7L65.1,217.7z"/>
							</g>
						</g>
					</g>
				</g>
			</g>
		</g>
	</g>
</g>
<g>
	<g>
		<g>
			<g>
				<g>
					<g>
						<g>
							<g>
								<path class="st4" d="M32.2,197.2c-2,0-3.6-1.6-3.6-3.6s1.6-3.6,3.6-3.6h48c2,0,3.6,1.6,3.6,3.6s-1.6,3.6-3.6,3.6H32.2z"/>
							</g>
						</g>
					</g>
				</g>
				<g>
					<g>
						<g>
							<g>
								<path class="st1" d="M80.3,190.5c1.7,0,3.1,1.4,3.1,3.1c0,1.7-1.4,3.1-3.1,3.1h-48c-1.7,0-3.1-1.4-3.1-3.1
									c0-1.7,1.4-3.1,3.1-3.1H80.3 M80.3,189.5h-48c-2.3,0-4.1,1.8-4.1,4.1s1.8,4.1,4.1,4.1h48c2.3,0,4.1-1.8,4.1-4.1
									S82.6,189.5,80.3,189.5L80.3,189.5z"/>
							</g>
						</g>
					</g>
				</g>
			</g>
		</g>
	</g>
</g>
<g>
	<g>
		<g>
			<g>
				<g>
					<g>
						<g>
							<g>
								<path class="st4" d="M32.2,81.2c-2,0-3.6-1.6-3.6-3.6s1.6-3.6,3.6-3.6H77c2,0,3.6,1.6,3.6,3.6s-1.6,3.6-3.6,3.6H32.2z"/>
							</g>
						</g>
					</g>
				</g>
				<g>
					<g>
						<g>
							<g>
								<path class="st1" d="M77,74.5c1.7,0,3.1,1.4,3.1,3.1c0,1.7-1.4,3.1-3.1,3.1H32.2c-1.7,0-3.1-1.4-3.1-3.1
									c0-1.7,1.4-3.1,3.1-3.1H77 M77,73.5H32.2c-2.3,0-4.1,1.8-4.1,4.1s1.8,4.1,4.1,4.1H77c2.3,0,4.1-1.8,4.1-4.1
									S79.2,73.5,77,73.5L77,73.5z"/>
							</g>
						</g>
					</g>
				</g>
			</g>
		</g>
	</g>
</g>
<g>
	<g>
		<g>
			<g>
				<g>
					<g>
						<g>
							<g>
								<path class="st4" d="M32.1,108.7c-2,0-3.6-1.6-3.6-3.6s1.6-3.6,3.6-3.6h29.1c2,0,3.6,1.6,3.6,3.6s-1.6,3.6-3.6,3.6H32.1z"/>
							</g>
						</g>
					</g>
				</g>
				<g>
					<g>
						<g>
							<g>
								<path class="st1" d="M61.2,101.9c1.7,0,3.1,1.4,3.1,3.1s-1.4,3.1-3.1,3.1H32.1c-1.7,0-3.1-1.4-3.1-3.1s1.4-3.1,3.1-3.1H61.2
									 M61.2,100.9H32.1c-2.3,0-4.1,1.8-4.1,4.1s1.8,4.1,4.1,4.1h29.1c2.3,0,4.1-1.8,4.1-4.1S63.5,100.9,61.2,100.9L61.2,100.9z"
									/>
							</g>
						</g>
					</g>
				</g>
			</g>
		</g>
	</g>
</g>
<g>
	<g>
		<g>
			<g>
				<g>
					<g>
						<g>
							<g>
								<path class="st4" d="M32.1,139.4c-2,0-3.6-1.6-3.6-3.6s1.6-3.6,3.6-3.6h29.6c2,0,3.6,1.6,3.6,3.6s-1.6,3.6-3.6,3.6H32.1z"/>
							</g>
						</g>
					</g>
				</g>
				<g>
					<g>
						<g>
							<g>
								<path class="st1" d="M61.7,132.6c1.7,0,3.1,1.4,3.1,3.1s-1.4,3.1-3.1,3.1H32.1c-1.7,0-3.1-1.4-3.1-3.1s1.4-3.1,3.1-3.1H61.7
									 M61.7,131.6H32.1c-2.3,0-4.1,1.8-4.1,4.1s1.8,4.1,4.1,4.1h29.6c2.3,0,4.1-1.8,4.1-4.1S64,131.6,61.7,131.6L61.7,131.6z"/>
							</g>
						</g>
					</g>
				</g>
			</g>
		</g>
	</g>
</g>
<g>
	<g>
		<g>
			<g>
				<g>
					<g>
						<g>
							<g>
								<path class="st4" d="M32.1,168.4c-2,0-3.6-1.6-3.6-3.6s1.6-3.6,3.6-3.6h43.3c2,0,3.6,1.6,3.6,3.6s-1.6,3.6-3.6,3.6H32.1z"/>
							</g>
						</g>
					</g>
				</g>
				<g>
					<g>
						<g>
							<g>
								<path class="st1" d="M75.4,161.6c1.7,0,3.1,1.4,3.1,3.1c0,1.7-1.4,3.1-3.1,3.1H32.1c-1.7,0-3.1-1.4-3.1-3.1
									c0-1.7,1.4-3.1,3.1-3.1H75.4 M75.4,160.6H32.1c-2.3,0-4.1,1.8-4.1,4.1c0,2.3,1.8,4.1,4.1,4.1h43.3c2.3,0,4.1-1.8,4.1-4.1
									C79.5,162.5,77.7,160.6,75.4,160.6L75.4,160.6z"/>
							</g>
						</g>
					</g>
				</g>
			</g>
		</g>
	</g>
</g>
<g>
	<g>
		<g>
			<g>
				<path class="st0" d="M176.3,94.9c4.1,3.9,7.3,8.8,9.4,14.1c2.1,5.4,3.1,11.2,2.8,17.1c-0.2,5.8-1.7,11.7-4.3,17
					c-2.6,5.3-6.3,10.1-10.7,14c-4.5,3.9-9.8,6.8-15.4,8.6c-5.6,1.8-11.6,2.4-17.4,1.7c-5.8-0.6-11.5-2.5-16.5-5.3
					c-5-2.9-9.4-6.8-12.6-11.4c8.1,7.8,18.7,12.4,29.4,12.8c5.3,0.2,10.7-0.6,15.7-2.3c5-1.7,9.6-4.4,13.6-7.9
					c4-3.4,7.3-7.6,9.8-12.3c2.5-4.7,4-9.8,4.6-15.1C185.7,115.1,182.8,104,176.3,94.9z"/>
			</g>
		</g>
	</g>
</g>
</svg>
