<?xml version="1.0" encoding="utf-8"?>
<!-- Generator: Adobe Illustrator 21.0.0, SVG Export Plug-In . SVG Version: 6.00 Build 0)  -->
<svg version="1.1" id="Layer_1" xmlns="http://www.w3.org/2000/svg" xmlns:xlink="http://www.w3.org/1999/xlink" x="0px" y="0px"
	 viewBox="0 0 250 250" style="enable-background:new 0 0 250 250;" xml:space="preserve">
<style type="text/css">
	.st0{fill:#B3B3B3;}
	.st1{fill:#EEC73A;}
	.st2{fill:#00417A;}
	.st3{fill:#CCCCCC;}
	.st4{fill-rule:evenodd;clip-rule:evenodd;fill:#EEC73A;}
	.st5{fill:#FFFFFF;}
	.st6{fill:#1D3567;}
	.st7{fill:none;stroke:#00417A;stroke-width:6.5;stroke-linecap:round;stroke-miterlimit:10;}
	.st8{fill-rule:evenodd;clip-rule:evenodd;fill:#00417A;}
	.st9{fill:none;stroke:#B3B3B3;stroke-width:6;stroke-miterlimit:10;}
</style>
<g>
	<g>
		<g>
			<g>
				<g>
					<path class="st0" d="M46.7,217.7c-1.9,2.2-3.9,4.2-6,6.2c-2,2-4.2,3.9-6.3,5.8c-4.3,3.7-8.7,7.3-13.3,10.7l-3.2,2.4l0.1-3.9
						c0.1-3.1,0.3-6.2,0.6-9.3c0.2-1.6,0.3-3.1,0.5-4.7c0.2-1.6,0.5-3.1,0.8-4.7c0.3,1.6,0.6,3.1,0.8,4.7c0.2,1.6,0.4,3.1,0.5,4.7
						c0.3,3.1,0.5,6.2,0.6,9.3l-3.1-1.5c4.4-3.6,8.8-7.1,13.4-10.4c2.3-1.6,4.6-3.3,7.1-4.8C41.7,220.5,44.1,219.1,46.7,217.7z"/>
				</g>
			</g>
		</g>
	</g>
	<g>
		<g>
			<g>
				<g>
					<g>
						<g>
							<g>
								<g>
									<circle class="st1" cx="47.2" cy="152.7" r="14.5"/>
								</g>
							</g>
						</g>
					</g>
				</g>
			</g>
		</g>
		<g>
			<g>
				<g>
					<g>
						<path class="st2" d="M47.2,169.9c-9.5,0-17.2-7.7-17.2-17.2s7.7-17.2,17.2-17.2s17.2,7.7,17.2,17.2S56.7,169.9,47.2,169.9z
							 M47.2,141c-6.4,0-11.7,5.2-11.7,11.7s5.2,11.7,11.7,11.7s11.7-5.2,11.7-11.7S53.6,141,47.2,141z"/>
					</g>
				</g>
			</g>
		</g>
	</g>
	<g>
		<g>
			<g>
				<g>
					<g>
						<g>
							<g>
								<g>
									<circle class="st1" cx="91.2" cy="152.7" r="14.5"/>
								</g>
							</g>
						</g>
					</g>
				</g>
			</g>
		</g>
		<g>
			<g>
				<g>
					<g>
						<path class="st2" d="M91.2,169.9c-9.5,0-17.2-7.7-17.2-17.2s7.7-17.2,17.2-17.2s17.2,7.7,17.2,17.2S100.7,169.9,91.2,169.9z
							 M91.2,141c-6.4,0-11.7,5.2-11.7,11.7s5.2,11.7,11.7,11.7s11.7-5.2,11.7-11.7S97.6,141,91.2,141z"/>
					</g>
				</g>
			</g>
		</g>
	</g>
	<g>
		<g>
			<g>
				<g>
					<g>
						<g>
							<g>
								<g>
									<circle class="st1" cx="135.2" cy="152.7" r="14.5"/>
								</g>
							</g>
						</g>
					</g>
				</g>
			</g>
		</g>
		<g>
			<g>
				<g>
					<g>
						<path class="st2" d="M135.2,169.9c-9.5,0-17.2-7.7-17.2-17.2s7.7-17.2,17.2-17.2s17.2,7.7,17.2,17.2S144.7,169.9,135.2,169.9z
							 M135.2,141c-6.4,0-11.7,5.2-11.7,11.7s5.2,11.7,11.7,11.7s11.7-5.2,11.7-11.7S141.6,141,135.2,141z"/>
					</g>
				</g>
			</g>
		</g>
	</g>
	<g>
		<g>
			<g>
				<g>
					<path class="st0" d="M116,83.6c-19.8,1.8-39.6,3-59.4,4c-9.9,0.5-19.8,0.9-29.7,1.3L23.2,89c-0.9,0.1-1.7,0.2-2.4,0.5
						c-1.5,0.6-2.9,1.6-3.8,2.8c-1,1.3-1.5,2.8-1.7,4.3c0,0.4,0,0.7,0,1.3l0,1.9l0,3.7c-0.2,19.8-0.7,39.6-1.7,59.4
						c-0.5,9.9-1.1,19.8-1.8,29.7L11,200l-0.3,3.7c-0.1,1.2-0.2,2.3-0.2,3.4c0.1,1.1,0.2,2,0.6,3c0.4,0.9,1,1.9,1.8,2.8
						c1.5,1.8,3.5,3.4,5.3,5.1c-2.4-0.9-4.7-1.9-6.9-3.3c-1.1-0.7-2.2-1.6-3.1-2.8c-0.9-1.2-1.5-2.6-1.9-4c-0.4-1.4-0.6-2.7-0.7-4
						c-0.1-0.7-0.1-1.3-0.1-1.9L5.5,200l-0.3-7.4c-0.3-9.9-0.5-19.8-0.6-29.7c-0.2-19.8,0.1-39.6,0.7-59.4l0.1-3.7l0.1-1.9
						c0-0.6,0-1.6,0.2-2.4c0.4-3.4,1.9-6.6,4.2-9.1c2.2-2.5,5.2-4.4,8.4-5.2c1.6-0.4,3.3-0.6,4.9-0.6l3.7,0
						c9.9,0.1,19.8,0.3,29.7,0.5C76.3,81.6,96.1,82.3,116,83.6z"/>
				</g>
			</g>
		</g>
	</g>
	<g>
		<g>
			<g>
				<g>
					<path class="st2" d="M16.5,250c-0.4,0-0.7-0.1-1.1-0.2c-0.9-0.4-1.5-1.4-1.5-2.4l0.2-25.7c-8.3-3.1-14-11.1-14-20.1V99.1
						c0-11.8,9.6-21.4,21.4-21.4h130.2c11.8,0,21.4,9.6,21.4,21.4v102.5c0,11.8-9.6,21.4-21.4,21.4H49.1l-30.9,26.3
						C17.7,249.8,17.1,250,16.5,250z M21.7,82.9c-9,0-16.2,7.3-16.2,16.2v102.5c0,7.3,5,13.8,12,15.7c1.1,0.3,1.9,1.3,1.9,2.5
						l-0.2,21.9l27.3-23.3c0.5-0.4,1.1-0.6,1.7-0.6h103.7c9,0,16.2-7.3,16.2-16.2V99.1c0-9-7.3-16.2-16.2-16.2H21.7z"/>
				</g>
			</g>
		</g>
	</g>
</g>
<g>
	<g>
		<g>
			<g>
				<path class="st5" d="M63.7,193.2h164.5c10.4,0,18.8-8.4,18.8-18.8V43.2c0-10.4-8.4-18.8-18.8-18.8H63.7
					c-10.4,0-18.8,8.4-18.8,18.8v131.2C44.9,184.7,53.3,193.2,63.7,193.2z"/>
			</g>
		</g>
	</g>
</g>
<g>
	<g>
		<g>
			<g>
				<g>
					<path class="st5" d="M63.7,193.2h164.5c10.4,0,18.8-8.4,18.8-18.8V43.2c0-10.4-8.4-18.8-18.8-18.8H63.7
						c-10.4,0-18.8,8.4-18.8,18.8v131.2C44.9,184.7,53.3,193.2,63.7,193.2z"/>
				</g>
			</g>
		</g>
	</g>
	<g>
		<g>
			<g>
				<g>
					<g>
						<g>
							<g>
								<g>
									<path class="st1" d="M176.2,111.5c0,9.6,7.8,17.4,17.4,17.4c9.6,0,17.4-7.8,17.4-17.4c0-9.6-7.8-17.4-17.4-17.4
										C184,94.1,176.2,101.9,176.2,111.5z"/>
								</g>
							</g>
						</g>
					</g>
				</g>
			</g>
		</g>
		<g>
			<g>
				<g>
					<g>
						<path class="st2" d="M193.6,132.3c-11.5,0-20.8-9.3-20.8-20.8s9.3-20.8,20.8-20.8c11.5,0,20.8,9.3,20.8,20.8
							S205.1,132.3,193.6,132.3z M193.6,97.5c-7.7,0-14.1,6.3-14.1,14.1s6.3,14.1,14.1,14.1s14.1-6.3,14.1-14.1
							S201.4,97.5,193.6,97.5z"/>
					</g>
				</g>
			</g>
		</g>
	</g>
	<g>
		<g>
			<g>
				<g>
					<g>
						<g>
							<g>
								<g>
									<path class="st1" d="M123.2,111.5c0,9.6,7.8,17.4,17.4,17.4c9.6,0,17.4-7.8,17.4-17.4c0-9.6-7.8-17.4-17.4-17.4
										C131,94.1,123.2,101.9,123.2,111.5z"/>
								</g>
							</g>
						</g>
					</g>
				</g>
			</g>
		</g>
		<g>
			<g>
				<g>
					<g>
						<path class="st2" d="M140.6,132.3c-11.5,0-20.8-9.3-20.8-20.8s9.3-20.8,20.8-20.8c11.5,0,20.8,9.3,20.8,20.8
							S152.1,132.3,140.6,132.3z M140.6,97.5c-7.7,0-14.1,6.3-14.1,14.1s6.3,14.1,14.1,14.1s14.1-6.3,14.1-14.1
							S148.4,97.5,140.6,97.5z"/>
					</g>
				</g>
			</g>
		</g>
	</g>
	<g>
		<g>
			<g>
				<g>
					<g>
						<g>
							<g>
								<g>
									<path class="st1" d="M70.2,111.5c0,9.6,7.8,17.4,17.4,17.4c9.6,0,17.4-7.8,17.4-17.4c0-9.6-7.8-17.4-17.4-17.4
										C78,94.1,70.2,101.9,70.2,111.5z"/>
								</g>
							</g>
						</g>
					</g>
				</g>
			</g>
		</g>
		<g>
			<g>
				<g>
					<g>
						<path class="st2" d="M87.6,132.3c-11.5,0-20.8-9.3-20.8-20.8s9.3-20.8,20.8-20.8c11.5,0,20.8,9.3,20.8,20.8
							S99.1,132.3,87.6,132.3z M87.6,97.5c-7.7,0-14.1,6.3-14.1,14.1s6.3,14.1,14.1,14.1s14.1-6.3,14.1-14.1S95.3,97.5,87.6,97.5z"
							/>
					</g>
				</g>
			</g>
		</g>
	</g>
	<g>
		<g>
			<g>
				<g>
					<path class="st0" d="M152.7,27.6c20.7-1.6,41.3-2.2,61.9-2.4l7.7-0.1c1.2,0,2.9-0.1,4.5,0.2c1.6,0.2,3.2,0.6,4.7,1.1
						c6.1,2.2,11.1,7.1,13.3,13.3c0.6,1.5,1,3.1,1.2,4.7c0.1,0.8,0.2,1.6,0.2,2.4l0.1,2l0.3,7.7L247,72c0.5,20.6,0.8,41.3,0.6,61.9
						c-0.1,10.3-0.3,20.6-0.5,31l-0.1,3.9c-0.1,1.4-0.2,2.7-0.4,4.1c-0.2,1.4-0.5,2.8-1,4.2c-0.5,1.4-1.2,2.7-2.1,3.9
						c-1.8,2.3-4,3.9-6.3,5.3c-2.3,1.3-4.6,2.5-7,3.5c2-1.6,4.1-3.2,6-4.9c1.9-1.7,3.6-3.6,4.6-5.6c1-2,1.3-4.2,1.3-6.6
						c0-1.2-0.1-2.5-0.2-3.7l-0.3-3.9c-0.8-10.3-1.5-20.6-2-30.9c-1.2-20.6-1.9-41.2-2.4-61.9l-0.3-15.5l-0.1-7.7l0-1.9
						c0-0.5,0-1-0.1-1.5c-0.1-0.9-0.3-1.9-0.6-2.8c-1.2-3.6-4-6.7-7.6-8.2c-0.9-0.4-1.8-0.7-2.8-0.9c-1-0.2-1.8-0.2-3.3-0.3
						l-7.7-0.4C193.9,31.8,173.3,30.2,152.7,27.6z"/>
				</g>
			</g>
		</g>
	</g>
	<g>
		<g>
			<g>
				<g>
					<path class="st0" d="M194.4,190.6c3.1,1.7,6,3.6,8.9,5.6c2.9,1.9,5.8,3.9,8.6,6c5.6,4.1,11.1,8.4,16.5,12.8l-3.1,1.5
						c0.1-3.9,0.3-7.7,0.6-11.6c0.2-1.9,0.3-3.9,0.5-5.8c0.2-1.9,0.5-3.9,0.8-5.8c0.3,1.9,0.6,3.9,0.8,5.8c0.2,1.9,0.4,3.9,0.5,5.8
						c0.3,3.9,0.5,7.7,0.6,11.6l0.1,3.9L226,218c-5.6-4.2-11-8.5-16.3-13c-2.6-2.3-5.3-4.6-7.8-6.9
						C199.3,195.6,196.8,193.2,194.4,190.6z"/>
				</g>
			</g>
		</g>
	</g>
	<g>
		<g>
			<g>
				<g>
					<path class="st2" d="M230.5,228.8c-0.7,0-1.4-0.3-2-0.7l-37.2-31.7H63.7c-12.1,0-22-9.8-22-22V43.2c0-12.1,9.9-22,22-22h164.5
						c12.1,0,22,9.8,22,22v131.2c0,9.7-11.9,17.8-16.5,20.6v30.8c0,1.2-0.7,2.3-1.8,2.8C231.4,228.7,231,228.8,230.5,228.8z
						 M63.7,27.5c-8.7,0-15.7,7.1-15.7,15.7v131.2c0,8.7,7.1,15.7,15.7,15.7h128.8c0.7,0,1.5,0.3,2,0.7l32.9,28.1v-25.8
						c0-1.1,0.6-2.2,1.6-2.7c3.9-2.1,14.9-9.6,14.9-16V43.2c0-8.7-7.1-15.7-15.7-15.7H63.7z"/>
				</g>
			</g>
		</g>
	</g>
</g>
</svg>
