<?xml version="1.0" encoding="utf-8"?>
<!-- Generator: Adobe Illustrator 21.0.0, SVG Export Plug-In . SVG Version: 6.00 Build 0)  -->
<svg version="1.1" id="Layer_1" xmlns="http://www.w3.org/2000/svg" xmlns:xlink="http://www.w3.org/1999/xlink" x="0px" y="0px"
	 viewBox="0 0 250 250" style="enable-background:new 0 0 250 250;" xml:space="preserve">
<style type="text/css">
	.st0{fill:#B3B3B3;}
	.st1{fill:#EEC73A;}
	.st2{fill:#00417A;}
	.st3{fill:#CCCCCC;}
	.st4{fill-rule:evenodd;clip-rule:evenodd;fill:#EEC73A;}
	.st5{fill:#FFFFFF;}
	.st6{fill:#1D3567;}
	.st7{fill:none;stroke:#00417A;stroke-width:6.5;stroke-linecap:round;stroke-miterlimit:10;}
	.st8{fill-rule:evenodd;clip-rule:evenodd;fill:#00417A;}
	.st9{fill:none;stroke:#B3B3B3;stroke-width:6;stroke-miterlimit:10;}
</style>
<g>
	<g>
		<g>
			<g>
				<path class="st0" d="M181.5,21.3c3.1-0.7,6.4-0.4,9.5,0.5c1.6,0.4,3.1,1.1,4.6,1.9c1.5,0.8,2.9,1.7,4.2,2.8
					c1.3,1.1,2.5,2.4,3.5,3.8c1,1.4,1.9,3,2.5,4.8c0.6,1.7,1,3.6,1,5.4l0,4.6l0.1,36.5c0,24.3,0.1,48.7,0,73l-0.1,36.5l0,18.3l0,9.1
					l0,2.3l0,1.2c0,0.4,0,0.9-0.1,1.3c-0.1,1.8-0.5,3.5-1,5.2c-2.2,6.8-7.8,12.4-14.7,14.4c-1.7,0.5-3.5,0.8-5.2,0.9
					c-0.4,0-0.9,0-1.3,0l-1.1,0l-2.3-0.1l-4.6-0.1l-4.6-0.2c-12.2-0.5-24.3-1.3-36.5-2.7c12.2-1.5,24.3-2.2,36.5-2.7l4.6-0.2
					l4.6-0.1l4.4-0.1c1.3-0.1,2.5-0.3,3.7-0.7c4.8-1.5,8.8-5.5,10.3-10.3c0.4-1.2,0.6-2.4,0.7-3.7c0-0.3,0-0.6,0-0.9l0-1.1l0-2.3
					l0-9.1l0-18.3l-0.1-36.5c-0.1-24.3,0-48.7,0-73l0.1-36.5l0-4.6c0-1.2,0-2.4-0.3-3.6c-0.3-1.2-0.8-2.4-1.4-3.5
					c-0.6-1.1-1.3-2.3-2.2-3.3C192.6,25.9,187.5,22.7,181.5,21.3z"/>
			</g>
		</g>
	</g>
</g>
<g>
	<g>
		<g>
			<g>
				<g>
					<g>
						<g>
							<g>
								<g>
									<path class="st4" d="M73.1,51.3c-2,0-3.6-1.6-3.6-3.6c0-2,1.6-3.6,3.6-3.6h111.9c2,0,3.6,1.6,3.6,3.6c0,2-1.6,3.6-3.6,3.6
										H73.1z"/>
								</g>
							</g>
						</g>
					</g>
					<g>
						<g>
							<g>
								<g>
									<path class="st1" d="M184.9,44.6c1.7,0,3.1,1.4,3.1,3.1c0,1.7-1.4,3.1-3.1,3.1H73.1c-1.7,0-3.1-1.4-3.1-3.1
										c0-1.7,1.4-3.1,3.1-3.1H184.9 M184.9,43.6H73.1c-2.3,0-4.1,1.8-4.1,4.1s1.8,4.1,4.1,4.1h111.9c2.3,0,4.1-1.8,4.1-4.1
										S187.2,43.6,184.9,43.6L184.9,43.6z"/>
								</g>
							</g>
						</g>
					</g>
				</g>
			</g>
		</g>
	</g>
</g>
<g>
	<g>
		<g>
			<g>
				<g>
					<g>
						<g>
							<g>
								<path class="st4" d="M74.2,231.6c-2,0-3.6-1.6-3.6-3.6c0-2,1.6-3.6,3.6-3.6h17.9c2,0,3.6,1.6,3.6,3.6v0.1l0,0.1
									c-0.2,0.3-1.6,3.4-3.6,3.4H74.2z"/>
							</g>
						</g>
					</g>
				</g>
				<g>
					<g>
						<g>
							<g>
								<path class="st1" d="M92.1,224.9c1.7,0,3.1,1.4,3.1,3.1c0,0-1.4,3.1-3.1,3.1H74.2c-1.7,0-3.1-1.4-3.1-3.1
									c0-1.7,1.4-3.1,3.1-3.1H92.1 M92.1,223.9H74.2c-2.3,0-4.1,1.8-4.1,4.1c0,2.3,1.8,4.1,4.1,4.1h17.9c2.3,0,3.7-3.1,4-3.7
									l0.1-0.2V228C96.2,225.7,94.4,223.9,92.1,223.9L92.1,223.9z"/>
							</g>
						</g>
					</g>
				</g>
			</g>
		</g>
	</g>
</g>
<g>
	<g>
		<g>
			<g>
				<g>
					<g>
						<g>
							<g>
								<path class="st4" d="M73.1,77.1c-2,0-3.6-1.6-3.6-3.6c0-2,1.6-3.6,3.6-3.6h97.9c2,0,3.6,1.6,3.6,3.6c0,2-1.6,3.6-3.6,3.6
									H73.1z"/>
							</g>
						</g>
					</g>
				</g>
				<g>
					<g>
						<g>
							<g>
								<path class="st1" d="M170.9,70.4c1.7,0,3.1,1.4,3.1,3.1s-1.4,3.1-3.1,3.1H73.1c-1.7,0-3.1-1.4-3.1-3.1s1.4-3.1,3.1-3.1
									H170.9 M170.9,69.4H73.1c-2.3,0-4.1,1.8-4.1,4.1s1.8,4.1,4.1,4.1h97.9c2.3,0,4.1-1.8,4.1-4.1S173.2,69.4,170.9,69.4
									L170.9,69.4z"/>
							</g>
						</g>
					</g>
				</g>
			</g>
		</g>
	</g>
</g>
<g>
	<g>
		<g>
			<g>
				<g>
					<g>
						<g>
							<g>
								<path class="st4" d="M73.1,102.8c-2,0-3.6-1.6-3.6-3.6c0-2,1.6-3.6,3.6-3.6h73.1c2,0,3.6,1.6,3.6,3.6c0,2-1.6,3.6-3.6,3.6
									H73.1z"/>
							</g>
						</g>
					</g>
				</g>
				<g>
					<g>
						<g>
							<g>
								<path class="st1" d="M146.2,96.1c1.7,0,3.1,1.4,3.1,3.1c0,1.7-1.4,3.1-3.1,3.1H73.1c-1.7,0-3.1-1.4-3.1-3.1
									c0-1.7,1.4-3.1,3.1-3.1H146.2 M146.2,95.1H73.1c-2.3,0-4.1,1.8-4.1,4.1c0,2.3,1.8,4.1,4.1,4.1h73.1c2.3,0,4.1-1.8,4.1-4.1
									C150.3,97,148.4,95.1,146.2,95.1L146.2,95.1z"/>
							</g>
						</g>
					</g>
				</g>
			</g>
		</g>
	</g>
</g>
<g>
	<g>
		<g>
			<g>
				<g>
					<g>
						<g>
							<g>
								<path class="st4" d="M73.1,128.6c-2,0-3.6-1.6-3.6-3.6c0-2,1.6-3.6,3.6-3.6h49.1c2,0,3.6,1.6,3.6,3.6c0,2-1.6,3.6-3.6,3.6
									H73.1z"/>
							</g>
						</g>
					</g>
				</g>
				<g>
					<g>
						<g>
							<g>
								<path class="st1" d="M122.2,121.9c1.7,0,3.1,1.4,3.1,3.1s-1.4,3.1-3.1,3.1H73.1c-1.7,0-3.1-1.4-3.1-3.1s1.4-3.1,3.1-3.1
									H122.2 M122.2,120.9H73.1c-2.3,0-4.1,1.8-4.1,4.1c0,2.3,1.8,4.1,4.1,4.1h49.1c2.3,0,4.1-1.8,4.1-4.1
									C126.3,122.7,124.4,120.9,122.2,120.9L122.2,120.9z"/>
							</g>
						</g>
					</g>
				</g>
			</g>
		</g>
	</g>
</g>
<g>
	<g>
		<g>
			<g>
				<g>
					<g>
						<g>
							<g>
								<path class="st4" d="M73.1,154.3c-2,0-3.6-1.6-3.6-3.6c0-2,1.6-3.6,3.6-3.6h28.1c2,0,3.6,1.6,3.6,3.6c0,2-1.6,3.6-3.6,3.6
									H73.1z"/>
							</g>
						</g>
					</g>
				</g>
				<g>
					<g>
						<g>
							<g>
								<path class="st1" d="M101.2,147.6c1.7,0,3.1,1.4,3.1,3.1s-1.4,3.1-3.1,3.1H73.1c-1.7,0-3.1-1.4-3.1-3.1s1.4-3.1,3.1-3.1
									H101.2 M101.2,146.6H73.1c-2.3,0-4.1,1.8-4.1,4.1s1.8,4.1,4.1,4.1h28.1c2.3,0,4.1-1.8,4.1-4.1S103.4,146.6,101.2,146.6
									L101.2,146.6z"/>
							</g>
						</g>
					</g>
				</g>
			</g>
		</g>
	</g>
</g>
<g>
	<g>
		<g>
			<g>
				<g>
					<g>
						<g>
							<g>
								<path class="st4" d="M73.1,180.1c-2,0-3.6-1.6-3.6-3.6c0-2,1.6-3.6,3.6-3.6h10.1c2,0,3.6,1.6,3.6,3.6c0,2-1.6,3.6-3.6,3.6
									H73.1z"/>
							</g>
						</g>
					</g>
				</g>
				<g>
					<g>
						<g>
							<g>
								<path class="st1" d="M83.2,173.4c1.7,0,3.1,1.4,3.1,3.1c0,1.7-1.4,3.1-3.1,3.1H73.1c-1.7,0-3.1-1.4-3.1-3.1
									c0-1.7,1.4-3.1,3.1-3.1H83.2 M83.2,172.4H73.1c-2.3,0-4.1,1.8-4.1,4.1s1.8,4.1,4.1,4.1h10.1c2.3,0,4.1-1.8,4.1-4.1
									S85.4,172.4,83.2,172.4L83.2,172.4z"/>
							</g>
						</g>
					</g>
				</g>
			</g>
		</g>
	</g>
</g>
<g>
	<g>
		<g>
			<g>
				<g>
					<g>
						<g>
							<g>
								<path class="st4" d="M73.1,205.8c-2,0-3.6-1.6-3.6-3.6c0-2,1.6-3.6,3.6-3.6h7.1c2,0,3.6,1.6,3.6,3.6c0,2-1.6,3.6-3.6,3.6
									H73.1z"/>
							</g>
						</g>
					</g>
				</g>
				<g>
					<g>
						<g>
							<g>
								<path class="st1" d="M80.2,199.1c1.7,0,3.1,1.4,3.1,3.1s-1.4,3.1-3.1,3.1h-7.1c-1.7,0-3.1-1.4-3.1-3.1s1.4-3.1,3.1-3.1H80.2
									 M80.2,198.1h-7.1c-2.3,0-4.1,1.8-4.1,4.1c0,2.3,1.8,4.1,4.1,4.1h7.1c2.3,0,4.1-1.8,4.1-4.1C84.3,200,82.4,198.1,80.2,198.1
									L80.2,198.1z"/>
							</g>
						</g>
					</g>
				</g>
			</g>
		</g>
	</g>
</g>
<g>
	<g>
		<g>
			<g>
				<path class="st2" d="M156,23.4c-1.8,0-3.3-1.5-3.3-3.3v-6.6c0-3.8-3.1-6.8-6.8-6.8h-33.8c-3.8,0-6.8,3.1-6.8,6.8v6.2
					c0,1.8-1.5,3.3-3.3,3.3s-3.3-1.5-3.3-3.3v-6.2c0-7.4,6-13.3,13.3-13.3h33.8c7.4,0,13.3,6,13.3,13.3v6.6
					C159.3,21.9,157.8,23.4,156,23.4z"/>
			</g>
		</g>
	</g>
</g>
<g>
	<g>
		<g>
			<g>
				<path class="st2" d="M189.5,248.8h-121c-12.3,0-22.3-10-22.3-22.3v-188c0-12.3,10-22.3,22.3-22.3H90c1.8,0,3.3,1.5,3.3,3.3
					s-1.5,3.3-3.3,3.3H68.5c-8.7,0-15.8,7.1-15.8,15.8v188c0,8.7,7.1,15.8,15.8,15.8h121c8.7,0,15.8-7.1,15.8-15.8v-188
					c0-8.7-7.1-15.8-15.8-15.8H168c-1.8,0-3.3-1.5-3.3-3.3s1.5-3.3,3.3-3.3h21.5c12.3,0,22.3,10,22.3,22.3v188
					C211.8,238.8,201.8,248.8,189.5,248.8z"/>
			</g>
		</g>
	</g>
</g>
<g>
	<g>
		<g>
			<g>
				<g>
					<path class="st5" d="M237.5,99.5l-15.9-15.9c-4.2-4.2-9.8-6.5-15.8-6.5c-6,0-11.5,2.3-15.8,6.5c0,0,0,0,0,0l0,0l0,0l-12.7,12.7
						c-0.2,0-0.4-0.1-0.5-0.1l-81.1,81.1c0.2,0-0.6,1.2-0.6,1.2l-4.6,41.4c-0.6,2.7-1.5,7.2,0.4,9.1c1.5,1.5,5.2,0.7,7.4,0.7
						c0.5,0,1-0.1,1.5-0.2l42.6-3.6l94.9-94.9C246.2,122.4,246.2,108.2,237.5,99.5z"/>
				</g>
			</g>
		</g>
	</g>
	<g>
		<g>
			<g>
				<g>
					<path class="st1" d="M90,215l4.8-33.5c0,0,17.3-0.3,29.8,15.1S139,223,139,227s-31,3-31,3S102,218,90,215z"/>
				</g>
			</g>
		</g>
	</g>
	<g>
		<g>
			<g>
				<g>
					<path class="st1" d="M181.4,92.8l22.7-18.6c0,0,17.3-0.3,29.8,15.1c12.5,15.4,13.3,19.5,13.3,23.5s-19.4,26.9-19.4,26.9
						S217,98.5,181.4,92.8z"/>
				</g>
			</g>
		</g>
	</g>
	<g>
		<g>
			<g>
				<g>
					<g>
						<g>
							<path class="st2" d="M93.6,235c-2.3,0-4.4-0.9-6.1-2.5c-2.1-2.1-3-5.1-2.3-8l4.9-44.2L191.6,78.8c4.5-4.5,10.5-7,16.9-7
								c6.4,0,12.3,2.5,16.9,7l17,17c9.3,9.3,9.3,24.4,0,33.7L140.8,231l-45.6,3.8C94.7,235,94.1,235,93.6,235z M96.1,183.1
								l-4.8,42.7c-0.2,0.8,0,1.7,0.6,2.3c0.6,0.6,1.4,0.8,2.2,0.6l0.4-0.1L138,225l99.9-99.9c6.9-6.9,6.9-18,0-24.9l-17-17
								c-3.3-3.3-7.7-5.2-12.4-5.2c-4.7,0-9.1,1.8-12.4,5.2L96.1,183.1z"/>
						</g>
					</g>
				</g>
			</g>
		</g>
	</g>
	<g>
		<g>
			<g>
				<g>
					<g>
						<g>
							<path class="st2" d="M105.7,232.2c-2-3.4-4.5-6.6-7.4-9.4c-3.1-3.1-6.5-5.7-10.2-7.8l3.1-5.4c4.2,2.4,8.1,5.4,11.5,8.8
								c3.2,3.2,6,6.8,8.3,10.6L105.7,232.2z"/>
						</g>
					</g>
				</g>
			</g>
		</g>
	</g>
	<g>
		<g>
			<g>
				<g>
					<path class="st0" d="M181.2,98.1c0,0,42.2,18.5,33.1,43.9c-9,25.3-65.2,72-72.6,79.3l2.2,3.3l82.6-82.6c0,0,1.1-23-20.9-35
						C205.7,107,196.4,95.8,181.2,98.1z"/>
				</g>
			</g>
		</g>
	</g>
	<g>
		<g>
			<g>
				<g>
					<g>
						<g>
							<path class="st2" d="M139.6,230.9c-0.3,0-0.7-0.1-1-0.2c-1.1-0.4-1.9-1.4-2.1-2.6c-1.2-11.2-6.1-21.4-14.1-29.4
								c-8-8-18.2-12.9-29.5-14.1c-1.2-0.1-2.2-0.9-2.6-2.1c-0.4-1.1-0.1-2.4,0.7-3.2l86.7-86.7c0.7-0.7,1.6-1,2.5-0.9
								c12.5,1.3,24.3,7,33.2,15.9c8.9,8.9,14.5,20.7,15.9,33.2c0.1,0.9-0.2,1.9-0.9,2.5L141.8,230
								C141.2,230.6,140.4,230.9,139.6,230.9z M99.8,179.4c10.2,2.3,19.6,7.4,27,14.9c7.4,7.4,12.6,16.9,14.9,27l81.4-81.4
								c-1.5-10.7-6.3-20.3-13.9-28c-7.7-7.7-17.3-12.5-28-13.9L99.8,179.4z"/>
						</g>
					</g>
				</g>
			</g>
		</g>
	</g>
	<g>
		<g>
			<g>
				<g>
					<g>
						<g>
							
								<rect x="98.2" y="142.7" transform="matrix(0.7071 -0.7071 0.7071 0.7071 -56.2871 155.748)" class="st2" width="123.4" height="6.2"/>
						</g>
					</g>
				</g>
			</g>
		</g>
	</g>
	<g>
		<g>
			<g>
				<g>
					<g>
						<g>
							
								<rect x="113.6" y="158.1" transform="matrix(0.7071 -0.7071 0.7071 0.7071 -62.6731 171.1586)" class="st2" width="123.4" height="6.2"/>
						</g>
					</g>
				</g>
			</g>
		</g>
	</g>
</g>
<g>
	<g>
		<g>
			<g>
				<path class="st2" d="M143.9,22.8h-29.8c-1.8,0-3.3-1.5-3.3-3.3s1.5-3.3,3.3-3.3h29.8c1.8,0,3.3,1.5,3.3,3.3
					S145.7,22.8,143.9,22.8z"/>
			</g>
		</g>
	</g>
</g>
</svg>
