<?xml version="1.0" encoding="utf-8"?>
<!-- Generator: Adobe Illustrator 21.0.0, SVG Export Plug-In . SVG Version: 6.00 Build 0)  -->
<svg version="1.1" id="Layer_1" xmlns="http://www.w3.org/2000/svg" xmlns:xlink="http://www.w3.org/1999/xlink" x="0px" y="0px"
	 viewBox="0 0 250 250" style="enable-background:new 0 0 250 250;" xml:space="preserve">
<style type="text/css">
	.st0{fill:#B3B3B3;}
	.st1{fill:#EEC73A;}
	.st2{fill:#00417A;}
	.st3{fill:#CCCCCC;}
	.st4{fill-rule:evenodd;clip-rule:evenodd;fill:#EEC73A;}
	.st5{fill:#FFFFFF;}
	.st6{fill:#1D3567;}
	.st7{fill:none;stroke:#00417A;stroke-width:6.5;stroke-linecap:round;stroke-miterlimit:10;}
	.st8{fill-rule:evenodd;clip-rule:evenodd;fill:#00417A;}
	.st9{fill:none;stroke:#B3B3B3;stroke-width:6;stroke-miterlimit:10;}
</style>
<g>
	<g>
		<g>
			<g>
				<g>
					<g>
						<g>
							<g>
								<path class="st1" d="M144.2,125.9c0,10-8.1,18.1-18.1,18.1c-10,0-18.1-8.1-18.1-18.1c0-10,8.1-18.1,18.1-18.1
									C136,107.8,144.2,115.9,144.2,125.9z"/>
							</g>
						</g>
					</g>
				</g>
			</g>
		</g>
	</g>
	<g>
		<g>
			<g>
				<g>
					<path class="st2" d="M126,177c-28.2,0-51.1-22.9-51.1-51.1c0-28.2,22.9-51.1,51.1-51.1c28.2,0,51.1,22.9,51.1,51.1
						C177.1,154.1,154.2,177,126,177z M126,81.8c-24.3,0-44.1,19.8-44.1,44.1S101.7,170,126,170c24.3,0,44.1-19.8,44.1-44.1
						S150.3,81.8,126,81.8z"/>
				</g>
			</g>
		</g>
	</g>
	<g>
		<g>
			<g>
				<g>
					<path class="st2" d="M126,147.5c-11.9,0-21.6-9.7-21.6-21.6s9.7-21.6,21.6-21.6s21.6,9.7,21.6,21.6S137.9,147.5,126,147.5z
						 M126,111.3c-8.1,0-14.6,6.6-14.6,14.6c0,8.1,6.6,14.6,14.6,14.6s14.6-6.6,14.6-14.6C140.7,117.8,134.1,111.3,126,111.3z"/>
				</g>
			</g>
		</g>
	</g>
</g>
<g>
	<g>
		<g>
			<g>
				<path class="st8" d="M102.4,225.3l23,23.4c0.3,0.2,0.7,0.2,1,0l23.1-23.4c0.3-0.2,0.3-0.5,0-0.7l-3-2.9l-18.2,18.2v-64.2
					c0-1.4-1.2-2.7-2.7-2.7c-1.5,0-2.4,1.3-2.4,2.7v63.7l-18-17.7l-2.9,2.9C102.1,224.8,102.1,225.1,102.4,225.3L102.4,225.3z"/>
			</g>
		</g>
	</g>
	<g>
		<g>
			<g>
				<path class="st2" d="M126,250.4c-0.5,0-1-0.1-1.3-0.4l-0.2-0.2l-23-23.3c-0.4-0.3-0.7-0.8-0.7-1.3c-0.1-0.6,0.2-1.2,0.6-1.6
					l3.9-3.9l16.5,16.3v-60.1c0-2.4,1.7-4.2,3.9-4.2c2.3,0,4.2,1.9,4.2,4.2v60.5l16.7-16.7l4,3.9c0.5,0.5,0.7,1.1,0.7,1.7
					c0,0.5-0.3,1-0.7,1.3L127.3,250C126.9,250.2,126.4,250.4,126,250.4z M104.2,224.9l21.8,22.2l21.9-22.2l-1.2-1.2l-19.7,19.7
					v-67.8c0-0.6-0.5-1.2-1.2-1.2c-0.7,0-0.9,0.7-0.9,1.2V243l-19.5-19.2L104.2,224.9z"/>
			</g>
		</g>
	</g>
</g>
<g>
	<g>
		<g>
			<g>
				<path class="st8" d="M39.6,149.5l23.4-23c0.2-0.3,0.2-0.7,0-1l-23.4-23.1c-0.2-0.3-0.5-0.3-0.7,0l-2.9,3l18.2,18.2h-50
					c-1.4,0-2.7,1.2-2.7,2.7c0,1.5,1.3,2.4,2.7,2.4h49.5l-17.7,18l2.9,2.9C39.2,149.8,39.5,149.8,39.6,149.5L39.6,149.5z"/>
			</g>
		</g>
	</g>
	<g>
		<g>
			<g>
				<path class="st2" d="M39.3,151.2c-0.5,0-1-0.2-1.5-0.6l-3.9-3.9l16.3-16.5H4.2c-2.4,0-4.2-1.7-4.2-3.9c0-2.3,1.9-4.2,4.2-4.2
					h46.4l-16.7-16.7l3.9-4c0.5-0.5,1.1-0.7,1.7-0.7c0.5,0.1,1,0.3,1.3,0.7l23.4,23.2l0.1,0.1c0.5,0.8,0.5,1.9,0,2.7l-0.2,0.2
					l-23.3,23c-0.3,0.4-0.8,0.7-1.3,0.7C39.4,151.2,39.4,151.2,39.3,151.2z M38.1,146.6l1.2,1.2l22.2-21.8L39.3,104l-1.2,1.2
					L57.8,125H4.2c-0.6,0-1.2,0.5-1.2,1.2c0,0.7,0.7,0.9,1.2,0.9h53.1L38.1,146.6z"/>
			</g>
		</g>
	</g>
</g>
<g>
	<g>
		<g>
			<g>
				<path class="st8" d="M210.4,149.5l-23.4-23c-0.2-0.3-0.2-0.7,0-1l23.4-23.1c0.2-0.3,0.5-0.3,0.7,0l2.9,3l-18.2,18.2h50
					c1.4,0,2.7,1.2,2.7,2.7c0,1.5-1.3,2.4-2.7,2.4h-49.5l17.7,18l-2.9,2.9C210.9,149.8,210.6,149.8,210.4,149.5L210.4,149.5z"/>
			</g>
		</g>
	</g>
	<g>
		<g>
			<g>
				<path class="st2" d="M210.8,151.2c-0.1,0-0.1,0-0.2,0c-0.5-0.1-1-0.3-1.3-0.7l-23.4-23.1l-0.1-0.1c-0.5-0.8-0.5-1.9,0-2.7
					l0.2-0.2l23.3-23.1c0.3-0.4,0.8-0.7,1.3-0.7c0.6-0.1,1.2,0.2,1.6,0.6l3.9,4.1L199.5,122h46.4c2.3,0,4.2,1.9,4.2,4.2
					c0,2.2-1.8,3.9-4.2,3.9h-45.9l16.3,16.5l-3.9,3.9C211.8,151,211.3,151.2,210.8,151.2z M188.6,125.9l22.2,21.8l1.2-1.2
					l-19.2-19.5h53.1c0.5,0,1.2-0.2,1.2-0.9c0-0.7-0.6-1.2-1.2-1.2h-53.6l19.7-19.7l-1.2-1.2L188.6,125.9z"/>
			</g>
		</g>
	</g>
</g>
<g>
	<g>
		<g>
			<g>
				<path class="st8" d="M101.4,39.9l23,23.4c0.3,0.2,0.7,0.2,1,0l23.1-23.4c0.3-0.2,0.3-0.5,0-0.7l-3-2.9l-18.2,18.2v-50
					c0-1.4-1.2-2.7-2.7-2.7c-1.5,0-2.4,1.3-2.4,2.7v49.5l-18-17.7l-2.9,2.9C101.1,39.4,101.1,39.7,101.4,39.9L101.4,39.9z"/>
			</g>
		</g>
	</g>
	<g>
		<g>
			<g>
				<path class="st2" d="M124.9,64.9c-0.5,0-1-0.1-1.3-0.4l-0.2-0.2l-23-23.3c-0.4-0.3-0.7-0.8-0.7-1.3c-0.1-0.6,0.2-1.2,0.6-1.6
					l3.9-3.9l16.5,16.3v-46c0-2.4,1.7-4.2,3.9-4.2c2.3,0,4.2,1.9,4.2,4.2v46.4l16.7-16.7l4,3.9c0.5,0.5,0.7,1.1,0.7,1.7
					c0,0.5-0.3,1-0.7,1.3l-23.2,23.4l-0.1,0.1C125.9,64.8,125.4,64.9,124.9,64.9z M103.1,39.5l21.8,22.2l21.9-22.2l-1.2-1.2
					L125.9,58V4.4c0-0.6-0.5-1.2-1.2-1.2c-0.7,0-0.9,0.7-0.9,1.2v53.1l-19.5-19.2L103.1,39.5z"/>
			</g>
		</g>
	</g>
</g>
<g>
	<g>
		<g>
			<g>
				<path class="st0" d="M158,94.5c4.2,4.1,7.5,9.1,9.7,14.7c2.1,5.6,3.2,11.7,2.9,17.7c-0.2,6.1-1.8,12.1-4.5,17.6
					c-2.7,5.5-6.5,10.5-11.1,14.5c-4.7,4-10.1,7.1-16,8.9c-5.8,1.8-12,2.5-18.1,1.8c-6-0.6-11.9-2.5-17.1-5.5
					c-5.2-3-9.7-7-13.1-11.8c4.2,4,9,7.3,14.2,9.6c5.2,2.3,10.7,3.5,16.3,3.8c5.6,0.2,11.1-0.6,16.3-2.4c5.2-1.8,10-4.6,14.2-8.2
					c4.2-3.6,7.6-8,10.2-12.8c2.6-4.9,4.2-10.2,4.8-15.8c0.6-5.5,0.2-11.2-1.3-16.7C164,104.4,161.4,99.2,158,94.5z"/>
			</g>
		</g>
	</g>
</g>
</svg>
